# 3ds Max Wavefront OBJ Exporter v0.97b - (c)2007 guruware
# File Created: 02.01.2018 18:14:23

mtllib 100823.mtl

#
# object no_turbo
#

v  -475.3810 0.0000 -235.8262
v  -475.3508 0.0000 -235.9972
v  -475.6253 0.0000 -235.9972
v  -475.6389 0.0000 -235.9201
v  -475.3810 0.0000 -236.1682
v  -475.6389 0.0000 -236.0743
v  -475.4678 0.0000 -236.3186
v  -475.6781 0.0000 -236.1421
v  -475.6008 0.0000 -236.4302
v  -475.7381 0.0000 -236.1925
v  -475.7640 0.0000 -236.4896
v  -475.8116 0.0000 -236.2193
v  -475.9376 0.0000 -236.4896
v  -475.8900 0.0000 -236.2193
v  -476.1008 0.0000 -236.4302
v  -475.9635 0.0000 -236.1925
v  -476.2338 0.0000 -236.3186
v  -476.0235 0.0000 -236.1421
v  -476.3206 0.0000 -236.1682
v  -476.0627 0.0000 -236.0743
v  -476.3508 0.0000 -235.9972
v  -476.0763 0.0000 -235.9972
v  -476.3206 0.0000 -235.8262
v  -476.0627 0.0000 -235.9201
v  -476.2338 0.0000 -235.6758
v  -476.0235 0.0000 -235.8522
v  -476.1008 0.0000 -235.5642
v  -475.9635 0.0000 -235.8019
v  -475.9376 0.0000 -235.5048
v  -475.8900 0.0000 -235.7751
v  -475.7640 0.0000 -235.5048
v  -475.8116 0.0000 -235.7751
v  -475.6008 0.0000 -235.5642
v  -475.7381 0.0000 -235.8019
v  -475.4678 0.0000 -235.6758
v  -475.6781 0.0000 -235.8522
v  -475.6253 -0.2000 -235.9972
v  -475.3508 -0.2000 -235.9972
v  -475.3810 -0.2000 -235.8262
v  -475.6389 -0.2000 -235.9201
v  -475.6389 -0.2000 -236.0743
v  -475.3810 -0.2000 -236.1682
v  -475.6781 -0.2000 -236.1421
v  -475.4678 -0.2000 -236.3186
v  -475.7381 -0.2000 -236.1925
v  -475.6008 -0.2000 -236.4302
v  -475.8116 -0.2000 -236.2193
v  -475.7640 -0.2000 -236.4896
v  -475.8900 -0.2000 -236.2193
v  -475.9376 -0.2000 -236.4896
v  -475.9635 -0.2000 -236.1925
v  -476.1008 -0.2000 -236.4302
v  -476.0235 -0.2000 -236.1421
v  -476.2338 -0.2000 -236.3186
v  -476.0627 -0.2000 -236.0743
v  -476.3206 -0.2000 -236.1682
v  -476.0763 -0.2000 -235.9972
v  -476.3508 -0.2000 -235.9972
v  -476.0627 -0.2000 -235.9201
v  -476.3206 -0.2000 -235.8262
v  -476.0235 -0.2000 -235.8522
v  -476.2338 -0.2000 -235.6758
v  -475.9635 -0.2000 -235.8019
v  -476.1008 -0.2000 -235.5642
v  -475.8900 -0.2000 -235.7751
v  -475.9376 -0.2000 -235.5048
v  -475.8116 -0.2000 -235.7751
v  -475.7640 -0.2000 -235.5048
v  -475.7381 -0.2000 -235.8019
v  -475.6008 -0.2000 -235.5642
v  -475.6781 -0.2000 -235.8522
v  -475.4678 -0.2000 -235.6758
# 72 vertices

vn 0.6975 0.6701 0.2539
vn 0.7423 0.6701 -0.0000
vn -0.6633 0.7484 -0.0000
vn -0.6233 0.7484 -0.2269
vn 0.6975 0.6701 -0.2539
vn -0.6232 0.7484 0.2269
vn 0.5687 0.6700 -0.4772
vn -0.5081 0.7484 0.4264
vn 0.3712 0.6700 -0.6429
vn -0.3316 0.7484 0.5744
vn 0.1289 0.6700 -0.7311
vn -0.1152 0.7484 0.6532
vn -0.1289 0.6700 -0.7311
vn 0.1152 0.7484 0.6532
vn -0.3712 0.6700 -0.6429
vn 0.3316 0.7484 0.5744
vn -0.5687 0.6700 -0.4772
vn 0.5081 0.7484 0.4264
vn -0.6976 0.6700 -0.2539
vn 0.6233 0.7484 0.2269
vn -0.7423 0.6701 -0.0000
vn 0.6633 0.7484 -0.0000
vn -0.6975 0.6701 0.2539
vn 0.6233 0.7484 -0.2269
vn -0.5687 0.6700 0.4772
vn 0.5081 0.7484 -0.4263
vn -0.3712 0.6700 0.6429
vn 0.3316 0.7484 -0.5744
vn -0.1289 0.6700 0.7311
vn 0.1152 0.7484 -0.6532
vn 0.1289 0.6700 0.7311
vn -0.1152 0.7484 -0.6532
vn 0.3712 0.6700 0.6429
vn -0.3316 0.7484 -0.5744
vn 0.5687 0.6700 0.4772
vn -0.5081 0.7484 -0.4263
vn -0.6633 -0.7484 -0.0000
vn 0.7423 -0.6701 -0.0000
vn 0.6975 -0.6701 0.2539
vn -0.6233 -0.7484 -0.2269
vn -0.6232 -0.7484 0.2269
vn 0.6975 -0.6701 -0.2539
vn -0.5081 -0.7484 0.4264
vn 0.5687 -0.6700 -0.4772
vn -0.3316 -0.7484 0.5744
vn 0.3712 -0.6700 -0.6429
vn -0.1152 -0.7484 0.6532
vn 0.1289 -0.6700 -0.7311
vn 0.1152 -0.7484 0.6532
vn -0.1289 -0.6700 -0.7311
vn 0.3316 -0.7484 0.5744
vn -0.3712 -0.6700 -0.6429
vn 0.5081 -0.7484 0.4264
vn -0.5687 -0.6700 -0.4772
vn 0.6233 -0.7484 0.2269
vn -0.6976 -0.6700 -0.2539
vn 0.6633 -0.7484 -0.0000
vn -0.7423 -0.6701 -0.0000
vn 0.6233 -0.7484 -0.2269
vn -0.6975 -0.6701 0.2539
vn 0.5081 -0.7484 -0.4263
vn -0.5687 -0.6700 0.4772
vn 0.3316 -0.7484 -0.5744
vn -0.3712 -0.6700 0.6429
vn 0.1152 -0.7484 -0.6532
vn -0.1289 -0.6700 0.7311
vn -0.1152 -0.7484 -0.6532
vn 0.1289 -0.6700 0.7311
vn -0.3316 -0.7484 -0.5744
vn 0.3712 -0.6700 0.6429
vn -0.5081 -0.7484 -0.4263
vn 0.5687 -0.6700 0.4772
# 72 vertex normals

vt 0.6944 0.0000 1.0000
vt 0.7500 0.0000 1.0000
vt 0.1760 0.0000 0.3473
vt 0.0511 0.0000 0.6527
vt -0.0197 0.0000 0.8794
vt -0.0278 0.0000 1.0000
vt 0.0278 0.0000 1.0000
vt 0.0833 0.0000 1.0000
vt 0.1389 0.0000 1.0000
vt 0.1944 0.0000 1.0000
vt 0.2500 0.0000 1.0000
vt 0.3056 0.0000 1.0000
vt 0.3611 0.0000 1.0000
vt 0.4167 0.0000 1.0000
vt 0.4722 0.0000 1.0000
vt 0.5278 0.0000 1.0000
vt 0.5833 0.0000 1.0000
vt 0.6389 0.0000 1.0000
# 18 texture coords

o no_turbo
g no_turbo
usemtl wire_138008110
s off
f 1/1/1 2/2/2 3/2/3 4/1/4 
f 2/2/2 5/3/5 6/3/6 3/2/3 
f 5/3/5 7/4/7 8/4/8 6/3/6 
f 7/4/7 9/5/9 10/5/10 8/4/8 
f 9/5/9 11/6/11 12/6/12 10/5/10 
f 11/6/11 13/7/13 14/7/14 12/6/12 
f 13/7/13 15/8/15 16/8/16 14/7/14 
f 15/8/15 17/9/17 18/9/18 16/8/16 
f 17/9/17 19/10/19 20/10/20 18/9/18 
f 19/10/19 21/11/21 22/11/22 20/10/20 
f 21/11/21 23/12/23 24/12/24 22/11/22 
f 23/12/23 25/13/25 26/13/26 24/12/24 
f 25/13/25 27/14/27 28/14/28 26/13/26 
f 27/14/27 29/15/29 30/15/30 28/14/28 
f 29/15/29 31/16/31 32/16/32 30/15/30 
f 31/16/31 33/17/33 34/17/34 32/16/32 
f 33/17/33 35/18/35 36/18/36 34/17/34 
f 35/18/35 1/1/1 4/1/4 36/18/36 
f 37/2/37 38/2/38 39/1/39 40/1/40 
f 41/3/41 42/3/42 38/2/38 37/2/37 
f 43/4/43 44/4/44 42/3/42 41/3/41 
f 45/5/45 46/5/46 44/4/44 43/4/43 
f 47/6/47 48/6/48 46/5/46 45/5/45 
f 49/7/49 50/7/50 48/6/48 47/6/47 
f 51/8/51 52/8/52 50/7/50 49/7/49 
f 53/9/53 54/9/54 52/8/52 51/8/51 
f 55/10/55 56/10/56 54/9/54 53/9/53 
f 57/11/57 58/11/58 56/10/56 55/10/55 
f 59/12/59 60/12/60 58/11/58 57/11/57 
f 61/13/61 62/13/62 60/12/60 59/12/59 
f 63/14/63 64/14/64 62/13/62 61/13/61 
f 65/15/65 66/15/66 64/14/64 63/14/63 
f 67/16/67 68/16/68 66/15/66 65/15/65 
f 69/17/69 70/17/70 68/16/68 67/16/67 
f 71/18/71 72/18/72 70/17/70 69/17/69 
f 40/1/40 39/1/39 72/18/72 71/18/71 
s 1
f 2/2/2 1/1/1 39/1/39 38/2/38 
f 4/1/4 3/2/3 37/2/37 40/1/40 
f 5/3/5 2/2/2 38/2/38 42/3/42 
f 3/2/3 6/3/6 41/3/41 37/2/37 
f 7/4/7 5/3/5 42/3/42 44/4/44 
f 6/3/6 8/4/8 43/4/43 41/3/41 
f 9/5/9 7/4/7 44/4/44 46/5/46 
f 8/4/8 10/5/10 45/5/45 43/4/43 
f 11/6/11 9/5/9 46/5/46 48/6/48 
f 10/5/10 12/6/12 47/6/47 45/5/45 
f 13/7/13 11/6/11 48/6/48 50/7/50 
f 12/6/12 14/7/14 49/7/49 47/6/47 
f 15/8/15 13/7/13 50/7/50 52/8/52 
f 14/7/14 16/8/16 51/8/51 49/7/49 
f 17/9/17 15/8/15 52/8/52 54/9/54 
f 16/8/16 18/9/18 53/9/53 51/8/51 
f 19/10/19 17/9/17 54/9/54 56/10/56 
f 18/9/18 20/10/20 55/10/55 53/9/53 
f 21/11/21 19/10/19 56/10/56 58/11/58 
f 20/10/20 22/11/22 57/11/57 55/10/55 
f 23/12/23 21/11/21 58/11/58 60/12/60 
f 22/11/22 24/12/24 59/12/59 57/11/57 
f 25/13/25 23/12/23 60/12/60 62/13/62 
f 24/12/24 26/13/26 61/13/61 59/12/59 
f 27/14/27 25/13/25 62/13/62 64/14/64 
f 26/13/26 28/14/28 63/14/63 61/13/61 
f 29/15/29 27/14/27 64/14/64 66/15/66 
f 28/14/28 30/15/30 65/15/65 63/14/63 
f 31/16/31 29/15/29 66/15/66 68/16/68 
f 30/15/30 32/16/32 67/16/67 65/15/65 
f 33/17/33 31/16/31 68/16/68 70/17/70 
f 32/16/32 34/17/34 69/17/69 67/16/67 
f 35/18/35 33/17/33 70/17/70 72/18/72 
f 34/17/34 36/18/36 71/18/71 69/17/69 
f 1/1/1 35/18/35 72/18/72 39/1/39 
f 36/18/36 4/1/4 40/1/40 71/18/71 
# 72 polygons

