# 3ds Max Wavefront OBJ Exporter v0.97b - (c)2007 guruware
# File Created: 10.01.2018 13:24:32

mtllib 101350.mtl

#
# object Cylinder001
#

v  -36.8990 -0.4000 -13.5767
v  -36.8990 -0.4000 -14.0520
v  -36.5630 -0.4000 -13.9128
v  -36.4238 -0.4000 -13.5767
v  -36.0990 0.0000 -13.5767
v  -36.3334 0.0000 -14.1424
v  -36.3334 4.0000 -14.1424
v  -36.0990 4.0000 -13.5767
v  -36.8990 0.0000 -14.3767
v  -36.8990 4.0000 -14.3767
v  -37.4647 0.0000 -14.1424
v  -37.4647 4.0000 -14.1424
v  -37.6990 0.0000 -13.5767
v  -37.6990 4.0000 -13.5767
v  -37.4647 0.0000 -13.0111
v  -37.4647 4.0000 -13.0111
v  -36.8990 0.0000 -12.7767
v  -36.8990 4.0000 -12.7767
v  -36.3334 0.0000 -13.0111
v  -36.3334 4.0000 -13.0111
v  -36.5630 4.4000 -13.2407
v  -36.4238 4.4000 -13.5767
v  -36.5630 4.4000 -13.9128
v  -36.8990 4.4000 -13.5767
v  -36.8990 4.4000 -14.0520
v  -37.2351 4.4000 -13.9128
v  -37.3743 4.4000 -13.5767
v  -37.2351 4.4000 -13.2407
v  -36.8990 4.4000 -13.1015
v  -36.5630 -0.4000 -13.2407
v  -36.8990 -0.4000 -13.1015
v  -37.2351 -0.4000 -13.2407
v  -37.3743 -0.4000 -13.5767
v  -37.2351 -0.4000 -13.9128
# 34 vertices

vn 0.0000 -1.0000 -0.0000
vn -0.0000 -0.8607 -0.5092
vn 0.3600 -0.8607 -0.3600
vn 0.5092 -0.8607 -0.0000
vn 0.9504 -0.3112 0.0000
vn 0.6720 -0.3112 -0.6720
vn 0.6720 0.3112 -0.6720
vn 0.9504 0.3112 0.0000
vn 0.0000 -0.3112 -0.9504
vn 0.0000 0.3112 -0.9504
vn -0.6720 -0.3112 -0.6720
vn -0.6720 0.3112 -0.6720
vn -0.9504 -0.3112 0.0000
vn -0.9504 0.3112 0.0000
vn -0.6720 -0.3112 0.6720
vn -0.6720 0.3112 0.6720
vn -0.0000 -0.3112 0.9504
vn -0.0000 0.3112 0.9504
vn 0.6720 -0.3112 0.6720
vn 0.6720 0.3112 0.6720
vn 0.3600 0.8607 0.3600
vn 0.5092 0.8607 -0.0000
vn 0.3600 0.8607 -0.3600
vn 0.0000 1.0000 -0.0000
vn 0.0000 0.8607 -0.5092
vn -0.3600 0.8607 -0.3600
vn -0.5092 0.8607 0.0000
vn -0.3600 0.8607 0.3600
vn -0.0000 0.8607 0.5092
vn 0.3600 -0.8607 0.3600
vn -0.0000 -0.8607 0.5092
vn -0.3600 -0.8607 0.3600
vn -0.5092 -0.8607 0.0000
vn -0.3600 -0.8607 -0.3600
# 34 vertex normals

vt 0.2500 0.0000 1.0000
vt 0.0000 0.0000 1.0000
vt -0.1250 0.0000 1.0000
vt 0.1161 0.0000 0.4142
vt 0.7500 0.0000 1.0000
vt 0.8750 0.0000 1.0000
vt 0.8750 1.0000 1.0000
vt 0.7500 1.0000 1.0000
vt 0.0000 1.0000 1.0000
vt -0.1250 1.0000 1.0000
vt 0.1250 0.0000 1.0000
vt 0.1250 1.0000 1.0000
vt 0.2500 1.0000 1.0000
vt 0.3750 0.0000 1.0000
vt 0.3750 1.0000 1.0000
vt 0.5000 0.0000 1.0000
vt 0.5000 1.0000 1.0000
vt 0.6250 0.0000 1.0000
vt 0.6250 1.0000 1.0000
vt 0.5732 1.0000 0.2929
vt 0.7803 1.0000 0.4142
vt 0.5214 1.0000 -0.4142
vt 0.2500 1.0000 -1.0000
vt 0.1250 1.0000 -1.0000
vt 0.2197 1.0000 -0.4142
# 25 texture coords

o Cylinder001
g Cylinder001
usemtl wire_224086086
s 1
f 1/1/1 2/2/2 3/3/3 4/4/4 
s 8
f 5/5/5 6/6/6 7/7/7 8/8/8 
f 6/3/6 9/2/9 10/9/10 7/10/7 
f 9/2/9 11/11/11 12/12/12 10/9/10 
f 11/11/11 13/1/13 14/13/14 12/12/12 
f 13/1/13 15/14/15 16/15/16 14/13/14 
f 15/14/15 17/16/17 18/17/18 16/15/16 
f 17/16/17 19/18/19 20/19/20 18/17/18 
f 19/18/19 5/5/5 8/8/8 20/19/20 
s 1
f 21/19/21 22/8/22 23/7/23 24/20/24 
s off
f 8/8/8 7/7/7 23/7/23 22/8/22 
f 7/7/7 10/21/10 25/21/25 23/7/23 
f 10/21/10 12/22/12 26/22/26 25/21/25 
f 12/22/12 14/23/14 27/23/27 26/22/26 
f 14/23/14 16/24/16 28/24/28 27/23/27 
f 16/24/16 18/25/18 29/25/29 28/24/28 
f 18/25/18 20/19/20 21/19/21 29/25/29 
f 20/19/20 8/8/8 22/8/22 21/19/21 
f 6/3/6 5/4/5 4/4/4 3/3/3 
f 5/4/5 19/18/19 30/18/30 4/4/4 
f 19/18/19 17/16/17 31/16/31 30/18/30 
f 17/16/17 15/14/15 32/14/32 31/16/31 
f 15/14/15 13/1/13 33/1/33 32/14/32 
f 13/1/13 11/11/11 34/11/34 33/1/33 
f 11/11/11 9/2/9 2/2/2 34/11/34 
f 9/2/9 6/3/6 3/3/3 2/2/2 
s 1
f 28/24/28 29/25/29 21/19/21 24/20/24 
f 23/7/23 25/21/25 26/22/26 24/20/24 
f 24/20/24 26/22/26 27/23/27 28/24/28 
f 33/1/33 34/11/34 2/2/2 1/1/1 
f 4/4/4 30/18/30 31/16/31 1/1/1 
f 1/1/1 31/16/31 32/14/32 33/1/33 
# 32 polygons

