# 3ds Max Wavefront OBJ Exporter v0.97b - (c)2007 guruware
# File Created: 02.01.2018 18:20:01

mtllib 101350.mtl

#
# object no_turbo
#

v  -33.3795 10.2016 -41.6265
v  -33.2660 10.2016 -41.6678
v  -33.1735 10.2016 -41.7454
v  -33.1131 10.2016 -41.8500
v  -33.0921 10.2016 -41.9689
v  -33.1131 10.2016 -42.0878
v  -33.1735 10.2016 -42.1924
v  -33.2660 10.2016 -42.2700
v  -33.3795 10.2016 -42.3113
v  -33.5002 10.2016 -42.3113
v  -33.6137 10.2016 -42.2700
v  -33.7062 10.2016 -42.1924
v  -33.7666 10.2016 -42.0878
v  -33.7875 10.2016 -41.9689
v  -33.7666 10.2016 -41.8500
v  -33.7062 10.2016 -41.7454
v  -33.6137 10.2016 -41.6678
v  -33.5002 10.2016 -41.6265
v  -33.1735 6.8016 -41.7454
v  -33.2660 6.8016 -41.6678
v  -33.3795 6.8016 -41.6265
v  -33.5002 6.8016 -41.6265
v  -33.6137 6.8016 -41.6678
v  -33.7062 6.8016 -41.7454
v  -33.7666 6.8016 -41.8500
v  -33.7875 6.8016 -41.9689
v  -33.7666 6.8016 -42.0878
v  -33.7062 6.8016 -42.1924
v  -33.6137 6.8016 -42.2700
v  -33.5002 6.8016 -42.3113
v  -33.3795 6.8016 -42.3113
v  -33.2660 6.8016 -42.2700
v  -33.1735 6.8016 -42.1924
v  -33.1131 6.8016 -42.0878
v  -33.0921 6.8016 -41.9689
v  -33.1131 6.8016 -41.8500
v  -32.9700 10.0016 -42.1399
v  -32.9398 10.0016 -41.9689
v  -32.9398 7.0016 -41.9689
v  -32.9700 7.0016 -42.1399
v  -33.0568 10.0016 -42.2903
v  -33.0568 7.0016 -42.2903
v  -33.1898 10.0016 -42.4019
v  -33.1898 7.0016 -42.4019
v  -33.3530 10.0016 -42.4613
v  -33.3530 7.0016 -42.4613
v  -33.5267 10.0016 -42.4613
v  -33.5267 7.0016 -42.4613
v  -33.6898 10.0016 -42.4019
v  -33.6898 7.0016 -42.4019
v  -33.8229 10.0016 -42.2903
v  -33.8229 7.0016 -42.2903
v  -33.9097 10.0016 -42.1399
v  -33.9097 7.0016 -42.1399
v  -33.9398 10.0016 -41.9689
v  -33.9398 7.0016 -41.9689
v  -33.9097 10.0016 -41.7979
v  -33.9097 7.0016 -41.7979
v  -33.8229 10.0016 -41.6475
v  -33.8229 7.0016 -41.6475
v  -33.6898 10.0016 -41.5359
v  -33.6898 7.0016 -41.5359
v  -33.5267 10.0016 -41.4765
v  -33.5267 7.0016 -41.4765
v  -33.3530 10.0016 -41.4765
v  -33.3530 7.0016 -41.4765
v  -33.1898 10.0016 -41.5359
v  -33.1898 7.0016 -41.5359
v  -33.0568 10.0016 -41.6475
v  -33.0568 7.0016 -41.6475
v  -32.9700 10.0016 -41.7979
v  -32.9700 7.0016 -41.7979
# 72 vertices

vn 0.0837 0.8763 0.4745
vn 0.2409 0.8763 0.4172
vn 0.3691 0.8763 0.3097
vn 0.4527 0.8763 0.1648
vn 0.4818 0.8763 0.0000
vn 0.4527 0.8763 -0.1648
vn 0.3691 0.8763 -0.3097
vn 0.2409 0.8763 -0.4172
vn 0.0837 0.8763 -0.4745
vn -0.0837 0.8763 -0.4745
vn -0.2409 0.8763 -0.4172
vn -0.3691 0.8763 -0.3097
vn -0.4527 0.8763 -0.1648
vn -0.4818 0.8763 -0.0000
vn -0.4527 0.8763 0.1648
vn -0.3691 0.8763 0.3097
vn -0.2409 0.8763 0.4172
vn -0.0837 0.8763 0.4745
vn 0.3691 -0.8763 0.3097
vn 0.2409 -0.8763 0.4172
vn 0.0837 -0.8763 0.4745
vn -0.0837 -0.8763 0.4745
vn -0.2409 -0.8763 0.4172
vn -0.3691 -0.8763 0.3097
vn -0.4527 -0.8763 0.1648
vn -0.4818 -0.8763 -0.0000
vn -0.4527 -0.8763 -0.1648
vn -0.3691 -0.8763 -0.3097
vn -0.2409 -0.8763 -0.4172
vn -0.0837 -0.8763 -0.4745
vn 0.0837 -0.8763 -0.4745
vn 0.2409 -0.8763 -0.4172
vn 0.3691 -0.8763 -0.3097
vn 0.4527 -0.8763 -0.1648
vn 0.4818 -0.8763 0.0000
vn 0.4527 -0.8763 0.1648
vn 0.8935 0.3095 -0.3252
vn 0.9509 0.3095 0.0000
vn 0.9509 -0.3095 0.0000
vn 0.8935 -0.3095 -0.3252
vn 0.7284 0.3095 -0.6112
vn 0.7284 -0.3095 -0.6112
vn 0.4755 0.3095 -0.8235
vn 0.4755 -0.3095 -0.8235
vn 0.1651 0.3095 -0.9365
vn 0.1651 -0.3095 -0.9365
vn -0.1651 0.3095 -0.9365
vn -0.1651 -0.3095 -0.9365
vn -0.4755 0.3095 -0.8235
vn -0.4755 -0.3095 -0.8235
vn -0.7284 0.3095 -0.6112
vn -0.7284 -0.3095 -0.6112
vn -0.8935 0.3095 -0.3252
vn -0.8935 -0.3095 -0.3252
vn -0.9509 0.3095 0.0000
vn -0.9509 -0.3095 0.0000
vn -0.8936 0.3095 0.3252
vn -0.8936 -0.3095 0.3252
vn -0.7284 0.3095 0.6112
vn -0.7284 -0.3095 0.6112
vn -0.4755 0.3095 0.8235
vn -0.4755 -0.3095 0.8235
vn -0.1651 0.3095 0.9365
vn -0.1651 -0.3095 0.9365
vn 0.1651 0.3095 0.9365
vn 0.1651 -0.3095 0.9365
vn 0.4755 0.3095 0.8235
vn 0.4755 -0.3095 0.8235
vn 0.7284 0.3095 0.6112
vn 0.7284 -0.3095 0.6112
vn 0.8935 0.3095 0.3252
vn 0.8935 -0.3095 0.3252
# 72 vertex normals

vt 0.0292 1.0000 -0.8794
vt 0.0874 1.0000 -0.6527
vt 0.1953 1.0000 -0.3473
vt 0.6944 1.0000 1.0000
vt 0.7500 1.0000 1.0000
vt 0.8056 1.0000 1.0000
vt 0.8611 1.0000 1.0000
vt 0.9167 1.0000 1.0000
vt 0.9722 1.0000 1.0000
vt 0.9708 1.0000 0.8794
vt 0.9126 1.0000 0.6527
vt 0.8047 1.0000 0.3473
vt 0.6600 1.0000 0.0000
vt 0.4960 1.0000 -0.3473
vt 0.3325 1.0000 -0.6527
vt 0.1891 1.0000 -0.8794
vt 0.0833 1.0000 -1.0000
vt 0.0278 1.0000 -1.0000
# 18 texture coords

o no_turbo
g no_turbo
usemtl wire_227153153
s 1
f 1/1/1 2/2/2 3/3/3 4/4/4 5/5/5 6/6/6 7/7/7 8/8/8 9/9/9 10/10/10 11/11/11 12/12/12 13/13/13 14/14/14 15/15/15 16/16/16 17/17/17 18/18/18 
f 19/3/19 20/2/20 21/1/21 22/18/22 23/17/23 24/16/24 25/15/25 26/14/26 27/13/27 28/12/28 29/11/29 30/10/30 31/9/31 32/8/32 33/7/33 34/6/34 35/5/35 36/4/36 
s 2
f 37/6/37 38/5/38 39/5/39 40/6/40 
f 41/7/41 37/6/37 40/6/40 42/7/42 
f 43/8/43 41/7/41 42/7/42 44/8/44 
f 45/9/45 43/8/43 44/8/44 46/9/46 
f 47/10/47 45/9/45 46/9/46 48/10/48 
f 49/11/49 47/10/47 48/10/48 50/11/50 
f 51/12/51 49/11/49 50/11/50 52/12/52 
f 53/13/53 51/12/51 52/12/52 54/13/54 
f 55/14/55 53/13/53 54/13/54 56/14/56 
f 57/15/57 55/14/55 56/14/56 58/15/58 
f 59/16/59 57/15/57 58/15/58 60/16/60 
f 61/17/61 59/16/59 60/16/60 62/17/62 
f 63/18/63 61/17/61 62/17/62 64/18/64 
f 65/1/65 63/18/63 64/18/64 66/1/66 
f 67/2/67 65/1/65 66/1/66 68/2/68 
f 69/3/69 67/2/67 68/2/68 70/3/70 
f 38/5/38 71/4/71 72/4/72 39/5/39 
f 71/4/71 69/3/69 70/3/70 72/4/72 
s off
f 38/5/38 37/6/37 6/6/6 5/5/5 
f 37/6/37 41/7/41 7/7/7 6/6/6 
f 41/7/41 43/8/43 8/8/8 7/7/7 
f 43/8/43 45/9/45 9/9/9 8/8/8 
f 45/9/45 47/10/47 10/10/10 9/9/9 
f 47/10/47 49/11/49 11/11/11 10/10/10 
f 49/11/49 51/12/51 12/12/12 11/11/11 
f 51/12/51 53/13/53 13/13/13 12/12/12 
f 53/13/53 55/14/55 14/14/14 13/13/13 
f 55/14/55 57/15/57 15/15/15 14/14/14 
f 57/15/57 59/16/59 16/16/16 15/15/15 
f 59/16/59 61/17/61 17/17/17 16/16/16 
f 61/17/61 63/18/63 18/18/18 17/17/17 
f 63/18/63 65/1/65 1/1/1 18/18/18 
f 65/1/65 67/2/67 2/2/2 1/1/1 
f 67/2/67 69/3/69 3/3/3 2/2/2 
f 69/3/69 71/4/71 4/4/4 3/3/3 
f 71/4/71 38/5/38 5/5/5 4/4/4 
f 42/7/42 40/6/40 34/6/34 33/7/33 
f 40/6/40 39/5/39 35/5/35 34/6/34 
f 39/5/39 72/4/72 36/4/36 35/5/35 
f 72/4/72 70/3/70 19/3/19 36/4/36 
f 70/3/70 68/2/68 20/2/20 19/3/19 
f 68/2/68 66/1/66 21/1/21 20/2/20 
f 66/1/66 64/18/64 22/18/22 21/1/21 
f 64/18/64 62/17/62 23/17/23 22/18/22 
f 62/17/62 60/16/60 24/16/24 23/17/23 
f 60/16/60 58/15/58 25/15/25 24/16/24 
f 58/15/58 56/14/56 26/14/26 25/15/25 
f 56/14/56 54/13/54 27/13/27 26/14/26 
f 54/13/54 52/12/52 28/12/28 27/13/27 
f 52/12/52 50/11/50 29/11/29 28/12/28 
f 50/11/50 48/10/48 30/10/30 29/11/29 
f 48/10/48 46/9/46 31/9/31 30/10/30 
f 46/9/46 44/8/44 32/8/32 31/9/31 
f 44/8/44 42/7/42 33/7/33 32/8/32 
# 56 polygons

