# 3ds Max Wavefront OBJ Exporter v0.97b - (c)2007 guruware
# File Created: 10.01.2018 13:06:00

mtllib 101532.mtl

#
# object Cylinder001
#

v  -49.3106 -0.2500 -104.4149
v  -49.5111 -0.2500 -104.3318
v  -49.7116 -0.2500 -104.4149
v  -49.7946 -0.2500 -104.6154
v  -49.7116 -0.2500 -104.8158
v  -49.5111 -0.2500 -104.8989
v  -49.3106 -0.2500 -104.8158
v  -49.2276 -0.2500 -104.6154
v  -49.0111 0.0000 -104.6154
v  -49.1575 0.0000 -104.9689
v  -49.1575 1.3306 -104.9689
v  -49.0111 1.3306 -104.6154
v  -49.5111 0.0000 -105.1154
v  -49.5111 1.3306 -105.1154
v  -49.8646 0.0000 -104.9689
v  -49.8646 1.3306 -104.9689
v  -50.0111 0.0000 -104.6154
v  -50.0111 1.3306 -104.6154
v  -49.8646 0.0000 -104.2618
v  -49.8646 1.3306 -104.2618
v  -49.5111 0.0000 -104.1154
v  -49.5111 1.3306 -104.1154
v  -49.1575 0.0000 -104.2618
v  -49.1575 1.3306 -104.2618
v  -48.8611 1.4000 -104.6154
v  -49.0515 1.4000 -105.0750
v  -49.0515 1.4579 -105.0750
v  -48.8611 1.4579 -104.6154
v  -49.5111 1.4000 -105.2654
v  -49.5111 1.4579 -105.2654
v  -49.9707 1.4000 -105.0750
v  -49.9707 1.4579 -105.0750
v  -50.1611 1.4000 -104.6154
v  -50.1611 1.4579 -104.6154
v  -49.9707 1.4000 -104.1557
v  -49.9707 1.4579 -104.1558
v  -49.5111 1.4000 -103.9654
v  -49.5111 1.4579 -103.9654
v  -49.0515 1.4000 -104.1557
v  -49.0515 1.4579 -104.1557
v  -49.3106 3.0500 -104.4149
v  -49.2276 3.0500 -104.6154
v  -49.3106 3.0500 -104.8158
v  -49.5111 3.0500 -104.8989
v  -49.7116 3.0500 -104.8158
v  -49.7946 3.0500 -104.6154
v  -49.7116 3.0500 -104.4149
v  -49.5111 3.0500 -104.3318
v  -49.0111 2.8000 -104.6154
v  -49.1575 2.8000 -104.9689
v  -49.5111 2.8000 -105.1154
v  -49.8646 2.8000 -104.9689
v  -50.0111 2.8000 -104.6154
v  -49.8646 2.8000 -104.2618
v  -49.5111 2.8000 -104.1154
v  -49.1575 2.8000 -104.2618
v  -49.1575 1.4579 -104.9689
v  -49.0111 1.4579 -104.6154
v  -49.5111 1.4579 -105.1154
v  -49.8646 1.4579 -104.9689
v  -50.0111 1.4579 -104.6154
v  -49.8646 1.4579 -104.2618
v  -49.5111 1.4579 -104.1154
v  -49.1575 1.4579 -104.2618
v  -49.0515 1.3306 -105.0750
v  -48.8611 1.3306 -104.6154
v  -49.5111 1.3306 -105.2654
v  -49.9707 1.3306 -105.0750
v  -50.1611 1.3306 -104.6154
v  -49.9707 1.3306 -104.1557
v  -49.5111 1.3306 -103.9654
v  -49.0515 1.3306 -104.1557
# 72 vertices

vn 0.3491 -0.8696 0.3491
vn -0.0000 -0.8696 0.4938
vn -0.3491 -0.8696 0.3491
vn -0.4938 -0.8696 0.0000
vn -0.3491 -0.8696 -0.3491
vn 0.0000 -0.8696 -0.4938
vn 0.3491 -0.8696 -0.3491
vn 0.4938 -0.8696 -0.0000
vn 0.9460 -0.3242 -0.0000
vn 0.6689 -0.3242 -0.6689
vn 0.4203 -0.8042 -0.4203
vn 0.5944 -0.8042 -0.0000
vn -0.0000 -0.3242 -0.9460
vn 0.0000 -0.8042 -0.5943
vn -0.6689 -0.3242 -0.6689
vn -0.4203 -0.8042 -0.4203
vn -0.9460 -0.3242 0.0000
vn -0.5944 -0.8042 0.0000
vn -0.6689 -0.3242 0.6689
vn -0.4203 -0.8042 0.4203
vn -0.0000 -0.3242 0.9460
vn -0.0000 -0.8042 0.5944
vn 0.6689 -0.3242 0.6689
vn 0.4203 -0.8042 0.4203
vn 1.0000 0.0000 0.0000
vn 0.7071 0.0000 -0.7071
vn 0.5490 0.6303 -0.5490
vn 0.7763 0.6303 -0.0000
vn -0.0000 0.0000 -1.0000
vn 0.0000 0.6303 -0.7764
vn -0.7071 0.0000 -0.7071
vn -0.5490 0.6303 -0.5490
vn -1.0000 0.0000 0.0000
vn -0.7764 0.6303 -0.0000
vn -0.7071 0.0000 0.7071
vn -0.5490 0.6303 0.5490
vn 0.0000 0.0000 1.0000
vn 0.0000 0.6303 0.7764
vn 0.7071 0.0000 0.7071
vn 0.5490 0.6302 0.5490
vn 0.3491 0.8696 0.3491
vn 0.4938 0.8696 -0.0000
vn 0.3491 0.8696 -0.3491
vn 0.0000 0.8696 -0.4938
vn -0.3491 0.8696 -0.3491
vn -0.4938 0.8696 0.0000
vn -0.3491 0.8696 0.3491
vn -0.0000 0.8696 0.4938
vn 0.9460 0.3242 -0.0000
vn 0.6689 0.3242 -0.6689
vn -0.0000 0.3242 -0.9460
vn -0.6689 0.3242 -0.6689
vn -0.9460 0.3242 0.0000
vn -0.6689 0.3242 0.6689
vn -0.0000 0.3242 0.9460
vn 0.6689 0.3242 0.6689
vn 0.4203 0.8042 -0.4203
vn 0.5944 0.8042 -0.0000
vn 0.0000 0.8042 -0.5943
vn -0.4203 0.8042 -0.4203
vn -0.5943 0.8042 -0.0000
vn -0.4203 0.8042 0.4202
vn 0.0000 0.8042 0.5943
vn 0.4203 0.8042 0.4203
vn 0.5490 -0.6303 -0.5490
vn 0.7764 -0.6303 0.0000
vn 0.0000 -0.6303 -0.7764
vn -0.5490 -0.6303 -0.5490
vn -0.7764 -0.6303 -0.0000
vn -0.5490 -0.6303 0.5490
vn 0.0000 -0.6303 0.7764
vn 0.5490 -0.6303 0.5490
# 72 vertex normals

vt 0.6250 0.0000 1.0000
vt 0.5000 0.0000 1.0000
vt 0.3750 0.0000 1.0000
vt 0.2500 0.0000 1.0000
vt 0.1250 0.0000 1.0000
vt 0.0000 0.0000 1.0000
vt -0.1250 0.0000 1.0000
vt 0.1161 0.0000 0.4142
vt 0.7500 0.0000 1.0000
vt 0.8750 0.0000 1.0000
vt 0.8750 0.4752 1.0000
vt 0.7500 0.4752 1.0000
vt 0.0000 0.4752 1.0000
vt -0.1250 0.4752 1.0000
vt 0.1250 0.4752 1.0000
vt 0.2500 0.4752 1.0000
vt 0.3750 0.4752 1.0000
vt 0.5000 0.4752 1.0000
vt 0.6250 0.4752 1.0000
vt 0.7500 0.5000 1.0000
vt 0.8750 0.5000 1.0000
vt 0.8750 0.5207 1.0000
vt 0.7500 0.5207 1.0000
vt -0.1250 0.5000 1.0000
vt 0.0000 0.5000 1.0000
vt 0.0000 0.5207 1.0000
vt -0.1250 0.5207 1.0000
vt 0.1250 0.5000 1.0000
vt 0.1250 0.5207 1.0000
vt 0.2500 0.5000 1.0000
vt 0.2500 0.5207 1.0000
vt 0.3750 0.5000 1.0000
vt 0.3750 0.5207 1.0000
vt 0.5000 0.5000 1.0000
vt 0.5000 0.5207 1.0000
vt 0.6250 0.5000 1.0000
vt 0.6250 0.5207 1.0000
vt 0.6250 1.0000 1.0000
vt 0.7500 1.0000 1.0000
vt 0.8750 1.0000 1.0000
vt 0.7803 1.0000 0.4142
vt 0.5214 1.0000 -0.4142
vt 0.2500 1.0000 -1.0000
vt 0.1250 1.0000 -1.0000
vt 0.2197 1.0000 -0.4142
vt 0.0000 1.0000 1.0000
vt -0.1250 1.0000 1.0000
vt 0.1250 1.0000 1.0000
vt 0.2500 1.0000 1.0000
vt 0.3750 1.0000 1.0000
vt 0.5000 1.0000 1.0000
# 51 texture coords

o Cylinder001
g Cylinder001
usemtl wire_214228153
s 1
f 1/1/1 2/2/2 3/3/3 4/4/4 5/5/5 6/6/6 7/7/7 8/8/8 
s 8
f 9/9/9 10/10/10 11/11/11 12/12/12 
f 10/7/10 13/6/13 14/13/14 11/14/11 
f 13/6/13 15/5/15 16/15/16 14/13/14 
f 15/5/15 17/4/17 18/16/18 16/15/16 
f 17/4/17 19/3/19 20/17/20 18/16/18 
f 19/3/19 21/2/21 22/18/22 20/17/20 
f 21/2/21 23/1/23 24/19/24 22/18/22 
f 23/1/23 9/9/9 12/12/12 24/19/24 
f 25/20/25 26/21/26 27/22/27 28/23/28 
f 26/24/26 29/25/29 30/26/30 27/27/27 
f 29/25/29 31/28/31 32/29/32 30/26/30 
f 31/28/31 33/30/33 34/31/34 32/29/32 
f 33/30/33 35/32/35 36/33/36 34/31/34 
f 35/32/35 37/34/37 38/35/38 36/33/36 
f 37/34/37 39/36/39 40/37/40 38/35/38 
f 39/36/39 25/20/25 28/23/28 40/37/40 
s 1
f 41/38/41 42/39/42 43/40/43 44/41/44 45/42/45 46/43/46 47/44/47 48/45/48 
s off
f 49/39/49 50/40/50 43/40/43 42/39/42 
f 50/40/50 51/41/51 44/41/44 43/40/43 
f 51/41/51 52/42/52 45/42/45 44/41/44 
f 52/42/52 53/43/53 46/43/46 45/42/45 
f 53/43/53 54/44/54 47/44/47 46/43/46 
f 54/44/54 55/45/55 48/45/48 47/44/47 
f 55/45/55 56/38/56 41/38/41 48/45/48 
f 56/38/56 49/39/49 42/39/42 41/38/41 
f 10/7/10 9/8/9 8/8/8 7/7/7 
f 9/8/9 23/1/23 1/1/1 8/8/8 
f 23/1/23 21/2/21 2/2/2 1/1/1 
f 21/2/21 19/3/19 3/3/3 2/2/2 
f 19/3/19 17/4/17 4/4/4 3/3/3 
f 17/4/17 15/5/15 5/5/5 4/4/4 
f 15/5/15 13/6/13 6/6/6 5/5/5 
f 13/6/13 10/7/10 7/7/7 6/6/6 
s 8
f 57/22/57 50/40/50 49/39/49 58/23/58 
f 59/26/59 51/46/51 50/47/50 57/27/57 
f 60/29/60 52/48/52 51/46/51 59/26/59 
f 61/31/61 53/49/53 52/48/52 60/29/60 
f 62/33/62 54/50/54 53/49/53 61/31/61 
f 63/35/63 55/51/55 54/50/54 62/33/62 
f 64/37/64 56/38/56 55/51/55 63/35/63 
f 58/23/58 49/39/49 56/38/56 64/37/64 
f 65/11/65 26/21/26 25/20/25 66/12/66 
f 67/13/67 29/25/29 26/24/26 65/14/65 
f 68/15/68 31/28/31 29/25/29 67/13/67 
f 69/16/69 33/30/33 31/28/31 68/15/68 
f 70/17/70 35/32/35 33/30/33 69/16/69 
f 71/18/71 37/34/37 35/32/35 70/17/70 
f 72/19/72 39/36/39 37/34/37 71/18/71 
f 66/12/66 25/20/25 39/36/39 72/19/72 
s off
f 57/22/57 58/23/58 28/23/28 27/22/27 
f 58/23/58 64/37/64 40/37/40 28/23/28 
f 64/37/64 63/35/63 38/35/38 40/37/40 
f 63/35/63 62/33/62 36/33/36 38/35/38 
f 62/33/62 61/31/61 34/31/34 36/33/36 
f 61/31/61 60/29/60 32/29/32 34/31/34 
f 60/29/60 59/26/59 30/26/30 32/29/32 
f 59/26/59 57/27/57 27/27/27 30/26/30 
f 12/12/12 11/11/11 65/11/65 66/12/66 
f 11/14/11 14/13/14 67/13/67 65/14/65 
f 14/13/14 16/15/16 68/15/68 67/13/67 
f 16/15/16 18/16/18 69/16/69 68/15/68 
f 18/16/18 20/17/20 70/17/70 69/16/69 
f 20/17/20 22/18/22 71/18/71 70/17/70 
f 22/18/22 24/19/24 72/19/72 71/18/71 
f 24/19/24 12/12/12 66/12/66 72/19/72 
# 66 polygons

