# 3ds Max Wavefront OBJ Exporter v0.97b - (c)2007 guruware
# File Created: 02.01.2018 18:19:28

mtllib 106989.mtl

#
# object no_turbo
#

v  0.0295 2.9475 -6.6131
v  0.0295 3.1720 -6.5201
v  0.0295 3.0972 -6.4453
v  0.0295 2.9475 -6.5073
v  0.0295 3.2650 -6.2957
v  0.0295 3.1592 -6.2957
v  0.0295 3.1720 -6.0712
v  0.0295 3.0972 -6.1460
v  0.0295 2.9475 -5.9782
v  0.0295 2.9475 -6.0840
v  0.0295 2.0694 -6.5073
v  0.0295 2.0694 -6.6131
v  0.0295 2.0694 -5.9782
v  0.0295 2.0694 -6.0840
v  0.0295 1.1912 -6.6131
v  0.0295 1.1912 -6.5073
v  0.0295 1.0415 -6.4453
v  0.0295 0.9667 -6.5201
v  0.0295 0.9796 -6.2957
v  0.0295 0.8737 -6.2957
v  0.0295 1.0415 -6.1460
v  0.0295 0.9667 -6.0712
v  0.0295 1.1912 -6.0840
v  0.0295 1.1912 -5.9782
v  0.0295 2.9475 -6.8097
v  0.0295 3.9049 -6.8097
v  0.0295 3.9050 -6.2957
v  0.0295 3.9049 -5.7816
v  0.0295 2.9475 -5.7816
v  0.0295 2.0694 -5.7816
v  0.0295 2.0694 -6.8097
v  0.0295 0.2338 -6.8097
v  0.0295 1.1912 -6.8097
v  0.0295 0.2338 -6.2957
v  0.0295 0.2338 -5.7816
v  0.0295 1.1912 -5.7816
v  0.0295 4.4679 -6.8097
v  0.0295 4.4679 -6.2957
v  0.0295 4.4679 -5.7816
v  0.0295 5.8202 -6.8097
v  0.0295 5.9091 -6.8097
v  0.0295 5.9091 -6.2957
v  0.0295 5.8203 -6.2957
v  0.0295 5.9091 -5.7816
v  0.0295 5.8202 -5.7816
v  0.0295 5.7329 -6.2957
v  0.0295 5.7329 -6.8097
v  0.0295 5.7329 -5.7816
v  0.0295 5.5058 -6.8097
v  0.0295 5.5059 -6.2957
v  0.0295 5.2405 -6.2957
v  0.0295 5.2405 -6.8097
v  0.0295 5.5058 -5.7816
v  0.0295 5.2405 -5.7816
v  0.0295 5.0152 -6.8097
v  0.0295 5.0152 -6.2957
v  0.0295 5.0152 -5.7816
v  -0.1034 3.0972 -6.4453
v  -0.1034 3.1720 -6.5201
v  -0.1034 2.9475 -6.6131
v  -0.1034 2.9475 -6.5073
v  -0.1034 3.1592 -6.2957
v  -0.1034 3.2650 -6.2957
v  -0.1034 3.0972 -6.1460
v  -0.1034 3.1720 -6.0712
v  -0.1034 2.9475 -6.0840
v  -0.1034 2.9475 -5.9782
v  -0.1034 2.0694 -6.6131
v  -0.1034 2.0694 -6.5073
v  -0.1034 2.0694 -6.0840
v  -0.1034 2.0694 -5.9782
v  -0.1034 1.0415 -6.4453
v  -0.1034 1.1912 -6.5073
v  -0.1034 1.1912 -6.6131
v  -0.1034 0.9667 -6.5201
v  -0.1034 0.9796 -6.2957
v  -0.1034 0.8737 -6.2957
v  -0.1034 1.0415 -6.1460
v  -0.1034 0.9667 -6.0712
v  -0.1034 1.1912 -6.0840
v  -0.1034 1.1912 -5.9782
v  -0.1034 2.9475 -6.8097
v  -0.1034 3.9049 -6.8097
v  -0.1034 3.9050 -6.2957
v  -0.1034 3.9049 -5.7816
v  -0.1034 2.9475 -5.7816
v  -0.1034 2.0694 -5.7816
v  -0.1034 2.0694 -6.8097
v  -0.1034 0.2338 -6.8097
v  -0.1034 1.1912 -6.8097
v  -0.1034 0.2338 -6.2957
v  -0.1034 0.2338 -5.7816
v  -0.1034 1.1912 -5.7816
v  -0.1034 4.4679 -6.2957
v  -0.1034 4.4679 -6.8097
v  -0.1034 4.4679 -5.7816
v  -0.1034 5.5059 -6.2957
v  -0.1034 5.7329 -6.2957
v  -0.1034 5.7329 -6.8097
v  -0.1034 5.5058 -6.8097
v  -0.1034 5.5058 -5.7816
v  -0.1034 5.7329 -5.7816
v  -0.1034 5.0152 -6.2957
v  -0.1034 5.2405 -6.2957
v  -0.1034 5.2405 -6.8097
v  -0.1034 5.0152 -6.8097
v  -0.1034 5.0152 -5.7816
v  -0.1034 5.2405 -5.7816
v  -0.1034 5.9091 -5.7816
v  -0.1034 5.8202 -5.7816
v  -0.1034 5.8202 -6.8097
v  -0.1034 5.8203 -6.2957
v  0.0295 5.9896 -6.8097
v  0.0295 5.9896 -6.2957
v  0.0295 5.9896 -5.7816
v  -0.1034 5.9896 -5.7816
v  -0.1034 5.9091 -6.8097
v  -0.1034 5.9091 -6.2957
v  -0.1034 5.9896 -6.8097
v  -0.1034 5.9896 -6.2957
v  1.9367 7.2377 -6.6131
v  1.9367 7.2377 -6.5073
v  1.7870 7.2377 -6.4453
v  1.7122 7.2377 -6.5201
v  1.7250 7.2377 -6.2957
v  1.6192 7.2377 -6.2957
v  1.7870 7.2377 -6.1460
v  1.7122 7.2377 -6.0712
v  1.9367 7.2377 -6.0840
v  1.9367 7.2377 -5.9782
v  2.3458 7.2377 -6.6131
v  2.3458 7.2377 -6.5073
v  2.3458 7.2377 -6.0840
v  2.3458 7.2377 -5.9782
v  2.7409 7.2377 -6.6131
v  2.9653 7.2377 -6.5201
v  2.8905 7.2377 -6.4453
v  2.7409 7.2377 -6.5073
v  3.0583 7.2377 -6.2957
v  2.9525 7.2377 -6.2957
v  2.9653 7.2377 -6.0712
v  2.8905 7.2377 -6.1460
v  2.7409 7.2377 -5.9782
v  2.7409 7.2377 -6.0840
v  0.9793 7.2377 -6.8097
v  1.9367 7.2377 -6.8097
v  0.9792 7.2377 -6.2957
v  0.9793 7.2377 -5.7816
v  1.9367 7.2377 -5.7816
v  2.3458 7.2377 -5.7816
v  2.3458 7.2377 -6.8097
v  2.7409 7.2377 -6.8097
v  3.6983 7.2377 -6.8097
v  3.6983 7.2377 -6.2957
v  3.6983 7.2377 -5.7816
v  2.7409 7.2377 -5.7816
v  0.7199 7.2377 -6.2957
v  0.7199 7.2377 -6.8097
v  0.7199 7.2377 -5.7816
v  0.0295 6.1589 -6.8097
v  0.0295 6.1589 -6.2957
v  0.0295 6.0700 -6.2957
v  0.0295 6.0701 -6.8097
v  0.0295 6.1589 -5.7816
v  0.0295 6.0701 -5.7816
v  0.0295 6.2371 -6.8097
v  0.0295 6.2371 -6.2957
v  0.0295 6.2371 -5.7816
v  0.0295 6.7069 -6.8097
v  0.0338 6.7710 -6.8097
v  0.0338 6.7710 -6.2957
v  0.0295 6.7069 -6.2957
v  0.0338 6.7710 -5.7816
v  0.0295 6.7069 -5.7816
v  0.2222 7.1141 -6.8097
v  0.2795 7.1557 -6.8097
v  0.2794 7.1557 -6.2957
v  0.2221 7.1141 -6.2957
v  0.2795 7.1557 -5.7816
v  0.2222 7.1141 -5.7816
v  1.7870 7.3707 -6.4453
v  1.9367 7.3707 -6.5073
v  1.9367 7.3707 -6.6131
v  1.7122 7.3707 -6.5201
v  1.7250 7.3707 -6.2957
v  1.6192 7.3707 -6.2957
v  1.7870 7.3707 -6.1460
v  1.7122 7.3707 -6.0712
v  1.9367 7.3707 -6.0840
v  1.9367 7.3707 -5.9782
v  2.3458 7.3707 -6.6131
v  2.3458 7.3707 -6.5073
v  2.3458 7.3707 -6.0840
v  2.3458 7.3707 -5.9782
v  2.8905 7.3707 -6.4453
v  2.9653 7.3707 -6.5201
v  2.7409 7.3707 -6.6131
v  2.7409 7.3707 -6.5073
v  2.9525 7.3707 -6.2957
v  3.0583 7.3707 -6.2957
v  2.8905 7.3707 -6.1460
v  2.9653 7.3707 -6.0712
v  2.7409 7.3707 -6.0840
v  2.7409 7.3707 -5.9782
v  1.9367 7.3707 -6.8097
v  0.9793 7.3707 -6.8097
v  0.9792 7.3707 -6.2957
v  0.9793 7.3707 -5.7816
v  1.9367 7.3707 -5.7816
v  2.3458 7.3707 -5.7816
v  2.3458 7.3707 -6.8097
v  3.6983 7.3707 -6.8097
v  2.7409 7.3707 -6.8097
v  3.6983 7.3707 -6.2957
v  3.6983 7.3707 -5.7816
v  2.7409 7.3707 -5.7816
v  0.7199 7.3707 -6.2957
v  0.7199 7.3707 -6.8097
v  0.7199 7.3707 -5.7816
v  -0.1034 6.7078 -6.2957
v  -0.1034 6.7078 -6.8097
v  -0.1034 6.5750 -6.8097
v  -0.1034 6.5750 -6.2957
v  -0.1034 6.7078 -5.7816
v  -0.1034 6.5750 -5.7816
v  0.1371 7.2162 -6.2957
v  0.1371 7.2162 -6.8097
v  0.0525 7.1319 -6.8097
v  0.0525 7.1318 -6.2957
v  0.1371 7.2162 -5.7816
v  0.0525 7.1319 -5.7816
v  0.5593 7.3706 -6.8097
v  0.5593 7.3706 -6.2957
v  0.5593 7.3706 -5.7816
v  -0.1034 6.1589 -5.7816
v  -0.1034 6.0701 -5.7816
v  -0.1034 6.1589 -6.8097
v  -0.1034 6.2371 -6.8097
v  0.0295 6.5750 -5.7816
v  -0.0980 6.7878 -6.8097
v  0.1543 7.0465 -5.7816
v  0.2087 7.2682 -6.8097
v  0.5602 7.2377 -5.7816
v  0.0295 6.4800 -6.2957
v  0.0295 6.4800 -6.8097
v  0.0295 6.5750 -6.8097
v  0.0295 6.5750 -6.2957
v  0.0295 6.4800 -5.7816
v  -0.1034 6.4800 -6.2957
v  -0.1034 6.4800 -6.8097
v  -0.1034 6.3314 -6.8097
v  -0.1034 6.3314 -6.2957
v  -0.1034 6.4800 -5.7816
v  -0.1034 6.3314 -5.7816
v  0.0295 6.3314 -5.7816
v  0.0893 6.9488 -6.2957
v  0.0893 6.9488 -6.8097
v  0.1141 6.9918 -6.8097
v  0.1141 6.9918 -6.2957
v  0.0893 6.9488 -5.7816
v  0.1141 6.9918 -5.7816
v  -0.0288 7.0098 -6.2957
v  -0.0288 7.0098 -6.8097
v  -0.0803 6.8771 -6.8097
v  -0.0803 6.8771 -6.2957
v  -0.0288 7.0098 -5.7816
v  -0.0803 6.8771 -5.7816
v  0.0022 7.0635 -6.8097
v  0.0480 6.8425 -5.7816
v  -0.1034 6.0701 -6.8097
v  -0.1034 6.0700 -6.2957
v  -0.1034 6.1589 -6.2957
v  0.0295 6.3314 -6.8097
v  0.0295 6.3314 -6.2957
v  -0.1034 6.2371 -6.2957
v  -0.1034 6.2371 -5.7816
v  0.0480 6.8425 -6.8097
v  0.0480 6.8424 -6.2957
v  -0.0980 6.7878 -6.2957
v  -0.0980 6.7878 -5.7816
v  0.0022 7.0635 -6.2957
v  0.0022 7.0635 -5.7816
v  0.1543 7.0465 -6.8097
v  0.1543 7.0465 -6.2957
v  0.3587 7.1967 -6.8097
v  0.3587 7.1967 -6.2957
v  0.3587 7.1967 -5.7816
v  0.2087 7.2682 -6.2957
v  0.2087 7.2682 -5.7816
v  0.3077 7.3194 -6.8097
v  0.3076 7.3194 -6.2957
v  0.3077 7.3194 -5.7816
v  0.4497 7.2254 -6.8097
v  0.4497 7.2254 -6.2957
v  0.4497 7.2254 -5.7816
v  0.4213 7.3552 -6.8097
v  0.4213 7.3552 -6.2957
v  0.4213 7.3552 -5.7816
v  0.5602 7.2377 -6.8097
v  0.5602 7.2377 -6.2957
# 300 vertices

vn 1.0000 -0.0000 -0.0000
vn 0.8042 -0.4203 0.4203
vn 0.7538 -0.1282 0.6445
vn 0.8042 -0.5944 -0.0000
vn 0.8042 -0.4203 -0.4203
vn 0.7538 -0.1282 -0.6445
vn 0.7071 -0.0000 0.7071
vn 0.7071 -0.0000 -0.7071
vn 1.0000 -0.0000 0.0000
vn 0.7537 0.1282 0.6446
vn 0.8042 0.4203 0.4202
vn 0.8042 0.5944 0.0000
vn 1.0000 0.0000 -0.0000
vn 0.8042 0.4203 -0.4202
vn 1.0000 0.0000 0.0000
vn 0.7537 0.1282 -0.6446
vn 0.5774 -0.5773 -0.5774
vn 0.7071 0.0000 -0.7071
vn 0.7071 -0.7071 -0.0000
vn 0.5774 -0.5773 0.5774
vn 0.7071 0.0000 0.7071
vn -0.8042 -0.4203 0.4203
vn -1.0000 0.0000 0.0000
vn -0.7538 -0.1282 0.6445
vn -0.8042 -0.5944 0.0000
vn -0.8042 -0.4203 -0.4203
vn -0.7538 -0.1282 -0.6445
vn -0.7071 0.0000 0.7071
vn -0.7071 0.0000 -0.7071
vn -0.8042 0.4203 0.4202
vn -0.7537 0.1282 0.6446
vn -0.8042 0.5944 0.0000
vn -0.8042 0.4203 -0.4203
vn -0.7538 0.1282 -0.6445
vn -0.7071 -0.0000 -0.7071
vn -0.7071 -0.0000 0.7071
vn -0.5774 -0.5773 -0.5774
vn -0.7071 -0.7071 0.0000
vn -0.5774 -0.5773 0.5774
vn -0.0000 -1.0000 -0.0000
vn 0.1282 -0.7538 0.6445
vn 0.4203 -0.8042 0.4203
vn 0.5944 -0.8042 -0.0000
vn -0.0000 -1.0000 0.0000
vn 0.4203 -0.8042 -0.4203
vn 0.1282 -0.7538 -0.6445
vn 0.0000 -1.0000 -0.0000
vn 0.0000 -1.0000 0.0000
vn 0.0000 -0.7071 0.7071
vn -0.0000 -0.7071 -0.7071
vn -0.4203 -0.8042 0.4203
vn -0.1282 -0.7538 0.6445
vn -0.5944 -0.8042 -0.0000
vn -0.4203 -0.8042 -0.4203
vn -0.1282 -0.7538 -0.6445
vn 0.0000 -0.7071 -0.7071
vn -0.0000 -0.7071 0.7071
vn 0.5773 -0.5774 -0.5774
vn 0.5773 -0.5774 0.5774
vn 0.6990 -0.0235 -0.7147
vn 0.6861 -0.0905 -0.7218
vn 0.9914 -0.1308 -0.0000
vn 0.9994 -0.0335 -0.0000
vn 0.6861 -0.0905 0.7218
vn 0.6990 -0.0235 0.7147
vn 0.4467 -0.5242 -0.7251
vn 0.3620 -0.5867 -0.7244
vn 0.5251 -0.8510 -0.0000
vn 0.6486 -0.7611 -0.0000
vn 0.3620 -0.5867 0.7244
vn 0.4467 -0.5242 0.7251
vn 0.4203 0.8042 0.4203
vn 0.1282 0.7538 0.6445
vn 0.0000 1.0000 0.0000
vn 0.5944 0.8042 -0.0000
vn 0.0000 1.0000 -0.0000
vn 0.4203 0.8042 -0.4203
vn 0.1282 0.7538 -0.6445
vn -0.0000 1.0000 0.0000
vn -0.0000 1.0000 -0.0000
vn 0.0000 0.7071 0.7071
vn 0.0000 0.7071 -0.7071
vn -0.4203 0.8042 0.4203
vn -0.1282 0.7538 0.6445
vn -0.5944 0.8042 0.0000
vn -0.4203 0.8042 -0.4203
vn -0.1282 0.7538 -0.6445
vn 0.5773 0.5774 -0.5774
vn -0.0000 0.7071 -0.7071
vn 0.7071 0.7071 -0.0000
vn 0.5773 0.5774 0.5774
vn -0.0000 0.7071 0.7071
vn -0.0001 1.0000 0.0000
vn -0.9994 0.0335 -0.0000
vn -0.7141 0.0240 -0.6997
vn -1.0000 0.0001 0.0000
vn -0.7141 0.0240 0.6996
vn -0.6486 0.7611 0.0000
vn -0.4694 0.5509 -0.6900
vn -0.5485 0.4719 -0.6902
vn -0.7581 0.6522 0.0000
vn -0.4694 0.5509 0.6900
vn -0.5485 0.4719 0.6902
vn -0.0401 0.7181 -0.6948
vn -0.0557 0.9984 0.0000
vn -0.0401 0.7181 0.6948
vn -0.7148 0.0943 -0.6930
vn 0.5223 -0.4494 0.7247
vn -0.3798 0.6155 -0.6906
vn 0.0387 -0.6931 0.7198
vn 0.9017 -0.4324 -0.0000
vn 0.6213 -0.2979 -0.7248
vn 0.5812 -0.3798 -0.7197
vn 0.8371 -0.5470 -0.0000
vn 0.6213 -0.2979 0.7248
vn 0.5812 -0.3798 0.7197
vn -0.9017 0.4324 0.0000
vn -0.6524 0.3129 -0.6903
vn -0.6969 0.2026 -0.6879
vn -0.9603 0.2791 0.0000
vn -0.6524 0.3129 0.6903
vn -0.6969 0.2026 0.6879
vn -0.6019 0.3934 -0.6949
vn 0.6590 -0.1916 0.7273
vn 0.6590 -0.1916 -0.7273
vn 0.9603 -0.2791 -0.0000
vn -0.9914 0.1308 0.0000
vn -0.7148 0.0943 0.6930
vn -0.8371 0.5470 0.0000
vn -0.6019 0.3934 0.6949
vn 0.5223 -0.4494 -0.7247
vn 0.7581 -0.6522 -0.0000
vn 0.2619 -0.6346 -0.7271
vn 0.3815 -0.9244 -0.0000
vn 0.2619 -0.6347 0.7270
vn -0.5251 0.8510 0.0000
vn -0.3798 0.6155 0.6906
vn -0.2768 0.6707 -0.6882
vn -0.3815 0.9244 -0.0000
vn -0.2768 0.6707 0.6882
vn 0.1414 -0.6692 -0.7295
vn 0.2067 -0.9784 0.0000
vn 0.1413 -0.6692 0.7296
vn -0.1504 0.7119 -0.6860
vn -0.2067 0.9784 -0.0000
vn -0.1504 0.7119 0.6860
vn 0.0387 -0.6931 -0.7198
vn 0.0557 -0.9984 0.0000
# 148 vertex normals

vt 21.4977 10.7489 0.0000
vt 18.3495 18.3495 0.0000
vt 15.8159 15.8159 0.0000
vt 17.9148 10.7489 0.0000
vt 10.7489 21.4977 0.0000
vt 10.7489 17.9148 0.0000
vt 3.1483 18.3495 0.0000
vt 5.6818 15.8159 0.0000
vt 0.0000 10.7489 0.0000
vt 3.5830 10.7489 0.0000
# 10 texture coords

o no_turbo
g no_turbo
usemtl wire_088144225
s 1
f 1/1/1 2/2/1 3/3/2 4/4/3 
f 2/2/1 5/5/1 6/6/4 3/3/2 
f 5/5/1 7/7/1 8/8/5 6/6/4 
f 7/7/1 9/9/1 10/10/6 8/8/5 
s off
f 4/4/3 11/4/7 12/1/1 1/1/1 
f 9/9/1 13/9/1 14/10/8 10/10/6 
s 1
f 15/1/9 16/4/10 17/3/11 18/2/1 
f 18/2/1 17/3/11 19/6/12 20/5/13 
f 20/5/13 19/6/12 21/8/14 22/7/15 
f 22/7/15 21/8/14 23/10/16 24/9/1 
s off
f 16/4/10 15/1/9 12/1/1 11/4/7 
f 24/9/1 23/10/16 14/10/8 13/9/1 
f 2/2/1 1/1/1 25/1/8 26/2/8 
f 5/5/1 2/2/1 26/2/8 27/5/9 
f 7/7/1 5/5/1 27/5/9 28/7/7 
f 9/9/1 7/7/1 28/7/7 29/9/7 
f 13/9/1 9/9/1 29/9/7 30/9/7 
f 1/1/1 12/1/1 31/1/8 25/1/8 
f 15/1/9 18/2/1 32/2/17 33/1/18 
f 18/2/1 20/5/13 34/5/19 32/2/17 
f 20/5/13 22/7/15 35/7/20 34/5/19 
f 22/7/15 24/9/1 36/9/21 35/7/20 
f 12/1/1 15/1/9 33/1/18 31/1/8 
f 24/9/1 13/9/1 30/9/7 36/9/21 
f 26/2/8 37/2/18 38/5/1 27/5/9 
f 27/5/9 38/5/1 39/7/7 28/7/7 
f 40/2/8 41/2/8 42/5/1 43/5/1 
f 43/5/1 42/5/1 44/7/7 45/7/7 
f 40/2/8 43/5/1 46/5/1 47/2/8 
f 43/5/1 45/7/7 48/7/21 46/5/1 
f 49/2/18 50/5/1 51/5/9 52/2/8 
f 50/5/1 53/7/7 54/7/7 51/5/9 
f 55/2/8 56/5/1 38/5/1 37/2/18 
f 56/5/1 57/7/7 39/7/7 38/5/1 
s 1
f 58/3/22 59/2/23 60/1/23 61/4/24 
f 62/6/25 63/5/23 59/2/23 58/3/22 
f 64/8/26 65/7/23 63/5/23 62/6/25 
f 66/10/27 67/9/23 65/7/23 64/8/26 
s off
f 68/1/23 69/4/28 61/4/24 60/1/23 
f 70/10/29 71/9/23 67/9/23 66/10/27 
s 1
f 72/3/30 73/4/31 74/1/23 75/2/23 
f 76/6/32 72/3/30 75/2/23 77/5/23 
f 78/8/33 76/6/32 77/5/23 79/7/23 
f 80/10/34 78/8/33 79/7/23 81/9/23 
s off
f 68/1/23 74/1/23 73/4/31 69/4/28 
f 70/10/29 80/10/34 81/9/23 71/9/23 
f 82/1/35 60/1/23 59/2/23 83/2/35 
f 83/2/35 59/2/23 63/5/23 84/5/23 
f 84/5/23 63/5/23 65/7/23 85/7/36 
f 85/7/36 65/7/23 67/9/23 86/9/36 
f 86/9/36 67/9/23 71/9/23 87/9/28 
f 88/1/29 68/1/23 60/1/23 82/1/35 
f 89/2/37 75/2/23 74/1/23 90/1/29 
f 91/5/38 77/5/23 75/2/23 89/2/37 
f 92/7/39 79/7/23 77/5/23 91/5/38 
f 93/9/28 81/9/23 79/7/23 92/7/39 
f 90/1/29 74/1/23 68/1/23 88/1/29 
f 87/9/28 71/9/23 81/9/23 93/9/28 
f 94/5/23 95/2/29 83/2/35 84/5/23 
f 96/7/28 94/5/23 84/5/23 85/7/36 
f 97/5/23 98/5/23 99/2/29 100/2/29 
f 101/7/28 102/7/28 98/5/23 97/5/23 
f 103/5/23 104/5/23 105/2/29 106/2/29 
f 107/7/28 108/7/28 104/5/23 103/5/23 
f 94/5/23 103/5/23 106/2/29 95/2/29 
f 96/7/28 107/7/28 103/5/23 94/5/23 
s 2
f 4/4/3 3/3/2 58/3/22 61/4/24 
f 3/3/2 6/6/4 62/6/25 58/3/22 
f 6/6/4 8/8/5 64/8/26 62/6/25 
f 8/8/5 10/10/6 66/10/27 64/8/26 
f 11/4/7 4/4/3 61/4/24 69/4/28 
f 10/10/6 14/10/8 70/10/29 66/10/27 
f 17/3/11 16/4/10 73/4/31 72/3/30 
s 4
f 19/6/12 17/3/11 72/3/30 76/6/32 
f 21/8/14 19/6/12 76/6/32 78/8/33 
s 2
f 23/10/16 21/8/14 78/8/33 80/10/34 
f 16/4/10 11/4/7 69/4/28 73/4/31 
f 14/10/8 23/10/16 80/10/34 70/10/29 
s 1
f 26/2/8 25/1/8 82/1/35 83/2/35 
f 29/9/7 28/7/7 85/7/36 86/9/36 
f 30/9/7 29/9/7 86/9/36 87/9/28 
f 25/1/8 31/1/8 88/1/29 82/1/35 
f 33/1/18 32/2/17 89/2/37 90/1/29 
s 2
f 32/2/17 34/5/19 91/5/38 89/2/37 
f 34/5/19 35/7/20 92/7/39 91/5/38 
s 1
f 35/7/20 36/9/21 93/9/28 92/7/39 
f 31/1/8 33/1/18 90/1/29 88/1/29 
f 36/9/21 30/9/7 87/9/28 93/9/28 
f 37/2/18 26/2/8 83/2/35 95/2/29 
f 28/7/7 39/7/7 96/7/28 85/7/36 
f 45/7/7 44/7/7 109/7/28 110/7/28 
f 40/2/8 47/2/8 99/2/29 111/2/29 
f 53/7/7 48/7/21 102/7/28 101/7/28 
f 49/2/18 52/2/8 105/2/29 100/2/29 
f 57/7/7 54/7/7 108/7/28 107/7/28 
f 55/2/8 37/2/18 95/2/29 106/2/29 
f 39/7/7 57/7/7 107/7/28 96/7/28 
s off
f 46/5/1 50/5/1 49/2/18 47/2/8 
f 48/7/21 53/7/7 50/5/1 46/5/1 
f 98/5/23 112/5/23 111/2/29 99/2/29 
f 102/7/28 110/7/28 112/5/23 98/5/23 
s 1
f 47/2/8 49/2/18 100/2/29 99/2/29 
f 48/7/21 45/7/7 110/7/28 102/7/28 
s off
f 51/5/9 56/5/1 55/2/8 52/2/8 
f 54/7/7 57/7/7 56/5/1 51/5/9 
f 104/5/23 97/5/23 100/2/29 105/2/29 
f 108/7/28 101/7/28 97/5/23 104/5/23 
s 1
f 52/2/8 55/2/8 106/2/29 105/2/29 
f 54/7/7 53/7/7 101/7/28 108/7/28 
s off
f 41/2/8 113/2/8 114/5/1 42/5/1 
f 42/5/1 114/5/1 115/7/7 44/7/7 
s 1
f 44/7/7 115/7/7 116/7/28 109/7/28 
s off
f 117/2/29 111/2/29 112/5/23 118/5/23 
f 118/5/23 112/5/23 110/7/28 109/7/28 
s 1
f 41/2/8 40/2/8 111/2/29 117/2/29 
s off
f 119/2/29 117/2/29 118/5/23 120/5/23 
f 120/5/23 118/5/23 109/7/28 116/7/28 
s 1
f 113/2/8 41/2/8 117/2/29 119/2/29 
f 121/1/40 122/4/41 123/3/42 124/2/40 
f 124/2/40 123/3/42 125/6/43 126/5/44 
f 126/5/44 125/6/43 127/8/45 128/7/44 
f 128/7/44 127/8/45 129/10/46 130/9/47 
s off
f 122/4/41 121/1/40 131/1/48 132/4/49 
f 130/9/47 129/10/46 133/10/50 134/9/44 
s 1
f 135/1/40 136/2/40 137/3/51 138/4/52 
f 136/2/40 139/5/44 140/6/53 137/3/51 
f 139/5/44 141/7/44 142/8/54 140/6/53 
f 141/7/44 143/9/44 144/10/55 142/8/54 
s off
f 138/4/52 132/4/49 131/1/48 135/1/40 
f 143/9/44 134/9/44 133/10/50 144/10/55 
f 124/2/40 145/2/56 146/1/56 121/1/40 
f 126/5/44 147/5/44 145/2/56 124/2/40 
f 128/7/44 148/7/49 147/5/44 126/5/44 
f 130/9/47 149/9/49 148/7/49 128/7/44 
f 134/9/44 150/9/57 149/9/49 130/9/47 
f 121/1/40 146/1/56 151/1/50 131/1/48 
f 135/1/40 152/1/50 153/2/58 136/2/40 
f 136/2/40 153/2/58 154/5/19 139/5/44 
f 139/5/44 154/5/19 155/7/59 141/7/44 
f 141/7/44 155/7/59 156/9/57 143/9/44 
f 131/1/48 151/1/50 152/1/50 135/1/40 
f 143/9/44 156/9/57 150/9/57 134/9/44 
f 145/2/56 147/5/44 157/5/47 158/2/56 
f 147/5/44 148/7/49 159/7/49 157/5/47 
f 160/2/8 161/5/1 162/5/13 163/2/8 
f 161/5/1 164/7/7 165/7/7 162/5/13 
f 160/2/8 166/2/8 167/5/1 161/5/1 
f 161/5/1 167/5/1 168/7/7 164/7/7 
f 169/2/60 170/2/61 171/5/62 172/5/63 
f 172/5/63 171/5/62 173/7/64 174/7/65 
f 175/2/66 176/2/67 177/5/68 178/5/69 
f 178/5/69 177/5/68 179/7/70 180/7/71 
s 1
f 181/3/72 182/4/73 183/1/74 184/2/74 
f 185/6/75 181/3/72 184/2/74 186/5/76 
f 187/8/77 185/6/75 186/5/76 188/7/76 
f 189/10/78 187/8/77 188/7/76 190/9/79 
s off
f 191/1/80 183/1/74 182/4/73 192/4/81 
f 193/10/82 189/10/78 190/9/79 194/9/76 
s 1
f 195/3/83 196/2/74 197/1/74 198/4/84 
f 199/6/85 200/5/76 196/2/74 195/3/83 
f 201/8/86 202/7/76 200/5/76 199/6/85 
f 203/10/87 204/9/76 202/7/76 201/8/86 
s off
f 191/1/80 192/4/81 198/4/84 197/1/74 
f 193/10/82 194/9/76 204/9/76 203/10/87 
f 205/1/82 206/2/82 184/2/74 183/1/74 
f 206/2/82 207/5/76 186/5/76 184/2/74 
f 207/5/76 208/7/81 188/7/76 186/5/76 
f 208/7/81 209/9/81 190/9/79 188/7/76 
f 209/9/81 210/9/81 194/9/76 190/9/79 
f 211/1/82 205/1/82 183/1/74 191/1/80 
f 212/2/88 213/1/89 197/1/74 196/2/74 
f 214/5/90 212/2/88 196/2/74 200/5/76 
f 215/7/91 214/5/90 200/5/76 202/7/76 
f 216/9/92 215/7/91 202/7/76 204/9/76 
f 213/1/89 211/1/82 191/1/80 197/1/74 
f 210/9/81 216/9/92 204/9/76 194/9/76 
f 217/5/93 207/5/76 206/2/82 218/2/89 
f 219/7/92 208/7/81 207/5/76 217/5/93 
f 220/5/94 221/2/95 222/2/29 223/5/96 
f 224/7/97 220/5/94 223/5/96 225/7/28 
f 226/5/98 227/2/99 228/2/100 229/5/101 
f 230/7/102 226/5/98 229/5/101 231/7/103 
f 217/5/93 218/2/89 232/2/104 233/5/105 
f 219/7/92 217/5/93 233/5/105 234/7/106 
s 2
f 122/4/41 182/4/73 181/3/72 123/3/42 
f 123/3/42 181/3/72 185/6/75 125/6/43 
f 125/6/43 185/6/75 187/8/77 127/8/45 
f 127/8/45 187/8/77 189/10/78 129/10/46 
f 132/4/49 192/4/81 182/4/73 122/4/41 
f 129/10/46 189/10/78 193/10/82 133/10/50 
f 137/3/51 195/3/83 198/4/84 138/4/52 
s 4
f 140/6/53 199/6/85 195/3/83 137/3/51 
f 142/8/54 201/8/86 199/6/85 140/6/53 
s 2
f 144/10/55 203/10/87 201/8/86 142/8/54 
f 138/4/52 198/4/84 192/4/81 132/4/49 
f 133/10/50 193/10/82 203/10/87 144/10/55 
s 1
f 145/2/56 206/2/82 205/1/82 146/1/56 
f 149/9/49 209/9/81 208/7/81 148/7/49 
f 150/9/57 210/9/81 209/9/81 149/9/49 
f 146/1/56 205/1/82 211/1/82 151/1/50 
f 152/1/50 213/1/89 212/2/88 153/2/58 
s 2
f 153/2/58 212/2/88 214/5/90 154/5/19 
f 154/5/19 214/5/90 215/7/91 155/7/59 
s 1
f 155/7/59 215/7/91 216/9/92 156/9/57 
f 151/1/50 211/1/82 213/1/89 152/1/50 
f 156/9/57 216/9/92 210/9/81 150/9/57 
f 158/2/56 218/2/89 206/2/82 145/2/56 
f 148/7/49 208/7/81 219/7/92 159/7/49 
f 164/7/7 235/7/28 236/7/28 165/7/7 
f 160/2/8 237/2/29 238/2/29 166/2/8 
f 174/7/65 224/7/97 225/7/28 239/7/7 
f 169/2/60 221/2/95 240/2/107 170/2/61 
f 180/7/71 230/7/102 231/7/103 241/7/108 
f 175/2/66 227/2/99 242/2/109 176/2/67 
f 159/7/49 219/7/92 234/7/106 243/7/110 
s off
f 244/5/9 245/2/18 246/2/8 247/5/1 
f 248/7/7 244/5/9 247/5/1 239/7/7 
f 249/5/23 250/2/29 251/2/29 252/5/23 
f 253/7/28 249/5/23 252/5/23 254/7/28 
s 1
f 245/2/18 250/2/29 222/2/29 246/2/8 
f 248/7/7 253/7/28 254/7/28 255/7/7 
s off
f 256/5/111 257/2/112 258/2/113 259/5/114 
f 260/7/115 256/5/111 259/5/114 261/7/116 
f 262/5/117 263/2/118 264/2/119 265/5/120 
f 266/7/121 262/5/117 265/5/120 267/7/122 
s 1
f 257/2/112 263/2/118 268/2/123 258/2/113 
f 260/7/115 266/7/121 267/7/122 269/7/124 
s off
f 163/2/8 162/5/13 114/5/1 113/2/8 
f 162/5/13 165/7/7 115/7/7 114/5/1 
s 1
f 165/7/7 236/7/28 116/7/28 115/7/7 
s off
f 270/2/29 271/5/23 272/5/23 237/2/29 
f 271/5/23 236/7/28 235/7/28 272/5/23 
s 1
f 163/2/8 270/2/29 237/2/29 160/2/8 
s off
f 119/2/29 120/5/23 271/5/23 270/2/29 
f 120/5/23 116/7/28 236/7/28 271/5/23 
s 1
f 113/2/8 119/2/29 270/2/29 163/2/8 
s off
f 166/2/8 273/2/8 274/5/1 167/5/1 
f 167/5/1 274/5/1 255/7/7 168/7/7 
s 1
f 238/2/29 251/2/29 273/2/8 166/2/8 
s off
f 238/2/29 237/2/29 272/5/23 275/5/23 
f 275/5/23 272/5/23 235/7/28 276/7/28 
s 1
f 276/7/28 235/7/28 164/7/7 168/7/7 
s off
f 251/2/29 238/2/29 275/5/23 252/5/23 
f 252/5/23 275/5/23 276/7/28 254/7/28 
s 1
f 254/7/28 276/7/28 168/7/7 255/7/7 
s off
f 273/2/8 245/2/18 244/5/9 274/5/1 
f 274/5/1 244/5/9 248/7/7 255/7/7 
s 1
f 251/2/29 250/2/29 245/2/18 273/2/8 
s off
f 222/2/29 250/2/29 249/5/23 223/5/96 
f 223/5/96 249/5/23 253/7/28 225/7/28 
s 1
f 225/7/28 253/7/28 248/7/7 239/7/7 
s off
f 246/2/8 169/2/60 172/5/63 247/5/1 
f 247/5/1 172/5/63 174/7/65 239/7/7 
s 1
f 222/2/29 221/2/95 169/2/60 246/2/8 
s off
f 170/2/61 277/2/125 278/5/126 171/5/62 
f 171/5/62 278/5/126 269/7/124 173/7/64 
s 1
f 240/2/107 264/2/119 277/2/125 170/2/61 
s off
f 240/2/107 221/2/95 220/5/94 279/5/127 
f 279/5/127 220/5/94 224/7/97 280/7/128 
s 1
f 280/7/128 224/7/97 174/7/65 173/7/64 
s off
f 264/2/119 240/2/107 279/5/127 265/5/120 
f 265/5/120 279/5/127 280/7/128 267/7/122 
s 1
f 267/7/122 280/7/128 173/7/64 269/7/124 
s off
f 277/2/125 257/2/112 256/5/111 278/5/126 
f 278/5/126 256/5/111 260/7/115 269/7/124 
s 1
f 264/2/119 263/2/118 257/2/112 277/2/125 
s off
f 268/2/123 263/2/118 262/5/117 281/5/129 
f 281/5/129 262/5/117 266/7/121 282/7/130 
s 1
f 282/7/130 266/7/121 260/7/115 261/7/116 
s off
f 258/2/113 283/2/131 284/5/132 259/5/114 
f 259/5/114 284/5/132 241/7/108 261/7/116 
s 1
f 268/2/123 228/2/100 283/2/131 258/2/113 
s off
f 228/2/100 268/2/123 281/5/129 229/5/101 
f 229/5/101 281/5/129 282/7/130 231/7/103 
s 1
f 231/7/103 282/7/130 261/7/116 241/7/108 
s off
f 283/2/131 175/2/66 178/5/69 284/5/132 
f 284/5/132 178/5/69 180/7/71 241/7/108 
s 1
f 228/2/100 227/2/99 175/2/66 283/2/131 
s off
f 176/2/67 285/2/133 286/5/134 177/5/68 
f 177/5/68 286/5/134 287/7/135 179/7/70 
f 242/2/109 227/2/99 226/5/98 288/5/136 
f 288/5/136 226/5/98 230/7/102 289/7/137 
s 1
f 242/2/109 290/2/138 285/2/133 176/2/67 
f 289/7/137 230/7/102 180/7/71 179/7/70 
s off
f 290/2/138 242/2/109 288/5/136 291/5/139 
f 291/5/139 288/5/136 289/7/137 292/7/140 
s 1
f 292/7/140 289/7/137 179/7/70 287/7/135 
s off
f 285/2/133 293/2/141 294/5/142 286/5/134 
f 286/5/134 294/5/142 295/7/143 287/7/135 
s 1
f 290/2/138 296/2/144 293/2/141 285/2/133 
s off
f 296/2/144 290/2/138 291/5/139 297/5/145 
f 297/5/145 291/5/139 292/7/140 298/7/146 
s 1
f 298/7/146 292/7/140 287/7/135 295/7/143 
s off
f 293/2/141 299/2/147 300/5/148 294/5/142 
f 294/5/142 300/5/148 243/7/110 295/7/143 
s 1
f 296/2/144 232/2/104 299/2/147 293/2/141 
s off
f 232/2/104 296/2/144 297/5/145 233/5/105 
f 233/5/105 297/5/145 298/7/146 234/7/106 
s 1
f 234/7/106 298/7/146 295/7/143 243/7/110 
s off
f 299/2/147 158/2/56 157/5/47 300/5/148 
f 300/5/148 157/5/47 159/7/49 243/7/110 
s 1
f 232/2/104 218/2/89 158/2/56 299/2/147 
# 302 polygons

