# 3ds Max Wavefront OBJ Exporter v0.97b - (c)2007 guruware
# File Created: 02.01.2018 18:25:34

mtllib ripiano con buco.mtl

#
# object Object001
#

v  0.8674 174.5152 9.7766
v  0.8674 174.6235 9.8848
v  0.8674 174.7766 9.8847
v  0.8674 174.8848 9.7765
v  0.8674 174.8847 9.6234
v  0.8674 174.7764 9.5152
v  0.8674 174.6234 9.5152
v  0.8674 174.5152 9.6235
v  0.8674 174.6043 9.9311
v  0.8674 174.7958 9.9311
v  0.8674 174.4689 9.7958
v  0.8674 174.4688 9.6043
v  0.8674 174.6042 9.4689
v  0.8674 174.7957 9.4688
v  0.8674 174.9311 9.6042
v  0.8674 174.9312 9.7956
v  -0.1326 174.6043 9.9311
v  -0.1326 174.5855 9.9767
v  -0.1326 174.8147 9.9766
v  -0.1326 174.7958 9.9311
v  -0.1326 174.4689 9.7958
v  -0.1326 174.4234 9.8147
v  -0.1326 174.4688 9.6043
v  -0.1326 174.4233 9.5855
v  -0.1326 174.6042 9.4689
v  -0.1326 174.5853 9.4234
v  -0.1326 174.7957 9.4688
v  -0.1326 174.8145 9.4233
v  -0.1326 174.9311 9.6042
v  -0.1326 174.9766 9.5853
v  -0.1326 174.9312 9.7956
v  -0.1326 174.9767 9.8145
v  -0.1326 174.6235 10.8652
v  -0.1326 174.7766 10.8652
v  -0.1326 174.7958 10.8189
v  -0.1326 174.6043 10.8188
v  -0.1326 174.5152 10.9734
v  -0.1326 174.4689 10.9542
v  -0.1326 174.5152 11.1265
v  -0.1326 174.4688 11.1456
v  -0.1326 174.6234 11.2347
v  -0.1326 174.6042 11.2811
v  -0.1326 174.7765 11.2348
v  -0.1326 174.7957 11.2812
v  -0.1326 174.8847 11.1266
v  -0.1326 174.9311 11.1458
v  -0.1326 174.8848 10.9735
v  -0.1326 174.9312 10.9543
v  -0.1326 174.8147 10.7734
v  -0.1326 174.5855 10.7733
v  -0.1326 174.4234 10.9353
v  -0.1326 174.4233 11.1645
v  -0.1326 174.5853 11.3266
v  -0.1326 174.8145 11.3267
v  -0.1326 174.9766 11.1647
v  -0.1326 174.9767 10.9355
v  -0.1326 175.6940 9.5853
v  -0.1326 175.6933 9.4233
v  -0.1326 175.6940 9.8145
v  -0.1326 175.6933 11.3267
v  -0.1326 175.6940 11.1647
v  -0.1326 175.6940 10.9355
v  -0.1326 174.8145 8.6731
v  -0.1326 174.5853 8.6732
v  -0.1326 175.6933 8.6731
v  -0.1326 174.5853 20.3761
v  -0.1326 174.8145 20.3762
v  -0.1326 175.6933 20.3762
v  0.8674 174.6234 31.2372
v  0.8674 174.7765 31.2372
v  0.8674 174.8847 31.1290
v  0.8674 174.8848 30.9760
v  0.8674 174.7766 30.8677
v  0.8674 174.6235 30.8676
v  0.8674 174.5153 30.9758
v  0.8674 174.5152 31.1289
v  0.8674 174.7958 30.8213
v  0.8674 174.6043 30.8213
v  0.8674 174.4689 30.9566
v  0.8674 174.4688 31.1481
v  0.8674 174.6042 31.2835
v  0.8674 174.7957 31.2836
v  0.8674 174.9311 31.1483
v  0.8674 174.9312 30.9568
v  -0.1326 174.6043 30.8213
v  -0.1326 174.7958 30.8213
v  -0.1326 174.8147 30.7758
v  -0.1326 174.5855 30.7758
v  -0.1326 174.4689 30.9566
v  -0.1326 174.4234 30.9378
v  -0.1326 174.4688 31.1481
v  -0.1326 174.4233 31.1669
v  -0.1326 174.6042 31.2835
v  -0.1326 174.5853 31.3290
v  -0.1326 174.7957 31.2836
v  -0.1326 174.8145 31.3291
v  -0.1326 174.9311 31.1483
v  -0.1326 174.9766 31.1671
v  -0.1326 174.9312 30.9568
v  -0.1326 174.9767 30.9379
v  -0.1326 174.6235 29.8872
v  -0.1326 174.6043 29.9336
v  -0.1326 174.7958 29.9335
v  -0.1326 174.7766 29.8872
v  -0.1326 174.5152 29.7790
v  -0.1326 174.4689 29.7983
v  -0.1326 174.5152 29.6260
v  -0.1326 174.4688 29.6068
v  -0.1326 174.6234 29.5177
v  -0.1326 174.6042 29.4713
v  -0.1326 174.7765 29.5176
v  -0.1326 174.7957 29.4713
v  -0.1326 174.8848 29.6258
v  -0.1326 174.9311 29.6066
v  -0.1326 174.8848 29.7789
v  -0.1326 174.9312 29.7981
v  -0.1326 174.5855 29.9791
v  -0.1326 174.8147 29.9791
v  -0.1326 174.4234 29.8171
v  -0.1326 174.4233 29.5879
v  -0.1326 174.5853 29.4258
v  -0.1326 174.8145 29.4257
v  -0.1326 174.9766 29.5877
v  -0.1326 174.9767 29.8169
v  -0.1326 175.6933 31.3291
v  -0.1326 175.6940 31.1671
v  -0.1326 175.6941 30.9380
v  -0.1326 175.6941 29.5877
v  -0.1326 175.6933 29.4257
v  -0.1326 175.6941 29.8169
v  -0.1326 174.5853 32.0793
v  -0.1326 174.8145 32.0793
v  -0.1326 175.6933 32.0793
v  -0.1326 174.5853 20.3763
v  -0.1326 173.7702 9.8147
v  -0.1326 173.7709 9.9767
v  -0.1326 173.7702 9.5855
v  -0.1326 173.7709 9.4234
v  -0.1326 173.7709 10.7733
v  -0.1326 173.7702 10.9353
v  -0.1326 173.7702 11.1645
v  -0.1326 173.7709 11.3266
v  -0.1326 173.7709 8.6732
v  -0.1326 173.7709 20.3761
v  -0.1326 173.7709 30.7758
v  -0.1326 173.7703 30.9378
v  -0.1326 173.7702 31.1669
v  -0.1326 173.7709 31.3290
v  -0.1326 173.7703 29.8171
v  -0.1326 173.7709 29.9791
v  -0.1326 173.7702 29.5879
v  -0.1326 173.7709 29.4258
v  -0.1326 173.7709 32.0793
v  -0.1326 173.7709 20.3763
v  54.8674 174.7766 9.8847
v  54.8674 174.6235 9.8848
v  54.8674 174.5152 9.7766
v  54.8674 174.5152 9.6235
v  54.8674 174.6234 9.5152
v  54.8674 174.7764 9.5152
v  54.8674 174.8847 9.6234
v  54.8674 174.8848 9.7765
v  54.8674 174.7958 9.9311
v  54.8674 174.6043 9.9312
v  54.8674 174.4689 9.7958
v  54.8674 174.4688 9.6043
v  54.8674 174.6042 9.4689
v  54.8674 174.7957 9.4688
v  54.8674 174.9311 9.6042
v  54.8674 174.9312 9.7957
v  55.8674 174.8147 9.9766
v  55.8674 174.5855 9.9767
v  55.8674 174.6043 9.9312
v  55.8674 174.7958 9.9311
v  55.8674 174.4234 9.8147
v  55.8674 174.4689 9.7958
v  55.8674 174.4233 9.5855
v  55.8674 174.4688 9.6043
v  55.8674 174.5853 9.4234
v  55.8674 174.6042 9.4689
v  55.8674 174.8145 9.4233
v  55.8674 174.7957 9.4688
v  55.8674 174.9766 9.5853
v  55.8674 174.9311 9.6042
v  55.8674 174.9767 9.8145
v  55.8674 174.9312 9.7957
v  55.8674 174.7958 10.8189
v  55.8674 174.7766 10.8652
v  55.8674 174.6235 10.8652
v  55.8674 174.6043 10.8188
v  55.8674 174.5152 10.9734
v  55.8674 174.4689 10.9542
v  55.8674 174.5152 11.1265
v  55.8674 174.4688 11.1457
v  55.8674 174.6234 11.2347
v  55.8674 174.6042 11.2811
v  55.8674 174.7765 11.2348
v  55.8674 174.7957 11.2812
v  55.8674 174.8847 11.1266
v  55.8674 174.9311 11.1458
v  55.8674 174.8848 10.9735
v  55.8674 174.9312 10.9543
v  55.8674 174.8147 10.7734
v  55.8674 174.5855 10.7733
v  55.8674 174.4234 10.9353
v  55.8674 174.4233 11.1645
v  55.8674 174.5853 11.3266
v  55.8674 174.8145 11.3267
v  55.8674 174.9766 11.1647
v  55.8674 174.9767 10.9355
v  55.8674 175.6940 9.5853
v  55.8674 175.6933 9.4233
v  55.8674 175.6940 9.8145
v  55.8674 175.6933 11.3267
v  55.8674 175.6940 11.1647
v  55.8674 175.6940 10.9355
v  55.8674 174.8145 8.6731
v  55.8674 174.5853 8.6732
v  55.8674 175.6933 8.6731
v  55.8674 174.5853 20.3761
v  55.8674 174.8145 20.3762
v  55.8674 175.6933 20.3762
v  54.8674 174.8847 31.1290
v  54.8674 174.7765 31.2372
v  54.8674 174.6234 31.2372
v  54.8674 174.5152 31.1289
v  54.8674 174.5153 30.9759
v  54.8674 174.6235 30.8677
v  54.8674 174.7766 30.8677
v  54.8674 174.8848 30.9760
v  54.8674 174.7958 30.8213
v  54.8674 174.6043 30.8213
v  54.8674 174.4689 30.9566
v  54.8674 174.4688 31.1481
v  54.8674 174.6042 31.2836
v  54.8674 174.7957 31.2836
v  54.8674 174.9311 31.1483
v  54.8674 174.9312 30.9568
v  55.8674 174.8147 30.7758
v  55.8674 174.7958 30.8213
v  55.8674 174.6043 30.8213
v  55.8674 174.5855 30.7758
v  55.8674 174.4689 30.9566
v  55.8674 174.4234 30.9378
v  55.8674 174.4688 31.1481
v  55.8674 174.4233 31.1669
v  55.8674 174.6042 31.2836
v  55.8674 174.5853 31.3291
v  55.8674 174.7957 31.2836
v  55.8674 174.8145 31.3291
v  55.8674 174.9311 31.1483
v  55.8674 174.9766 31.1672
v  55.8674 174.9312 30.9568
v  55.8674 174.9767 30.9380
v  55.8674 174.7958 29.9336
v  55.8674 174.6043 29.9336
v  55.8674 174.6235 29.8873
v  55.8674 174.7766 29.8872
v  55.8674 174.4689 29.7983
v  55.8674 174.5152 29.7790
v  55.8674 174.4688 29.6068
v  55.8674 174.5152 29.6260
v  55.8674 174.6042 29.4713
v  55.8674 174.6234 29.5177
v  55.8674 174.7957 29.4713
v  55.8674 174.7765 29.5176
v  55.8674 174.9311 29.6066
v  55.8674 174.8848 29.6259
v  55.8674 174.9312 29.7981
v  55.8674 174.8848 29.7789
v  55.8674 174.8147 29.9791
v  55.8674 174.5855 29.9791
v  55.8674 174.4234 29.8171
v  55.8674 174.4233 29.5879
v  55.8674 174.5853 29.4258
v  55.8674 174.8145 29.4258
v  55.8674 174.9766 29.5877
v  55.8674 174.9767 29.8169
v  55.8674 175.6940 31.1671
v  55.8674 175.6933 31.3291
v  55.8674 175.6941 30.9380
v  55.8674 175.6933 29.4258
v  55.8674 175.6941 29.5877
v  55.8674 175.6941 29.8169
v  55.8674 174.8145 32.0794
v  55.8674 174.5853 32.0793
v  55.8674 175.6933 32.0793
v  55.8674 174.5853 20.3763
v  55.8674 173.7702 9.8147
v  55.8674 173.7709 9.9767
v  55.8674 173.7702 9.5855
v  55.8674 173.7709 9.4234
v  55.8674 173.7709 10.7733
v  55.8674 173.7702 10.9353
v  55.8674 173.7702 11.1645
v  55.8674 173.7709 11.3266
v  55.8674 173.7709 8.6732
v  55.8674 173.7709 20.3761
v  55.8674 173.7709 30.7758
v  55.8674 173.7703 30.9378
v  55.8674 173.7702 31.1669
v  55.8674 173.7709 31.3291
v  55.8674 173.7703 29.8172
v  55.8674 173.7709 29.9791
v  55.8674 173.7702 29.5879
v  55.8674 173.7709 29.4258
v  55.8674 173.7709 32.0793
v  55.8674 173.7709 20.3763
# 308 vertices

vn -1.0000 -0.0000 -0.0000
vn -0.6303 0.2969 -0.7174
vn -0.6303 -0.2973 -0.7172
vn -0.6303 0.7172 -0.2974
vn -0.6303 0.7174 0.2969
vn -0.6303 0.2973 0.7172
vn -0.6303 -0.2968 0.7174
vn -0.6303 -0.7172 0.2974
vn -0.6303 -0.7174 -0.2969
vn -0.8042 0.2273 -0.5492
vn -0.8042 -0.2276 -0.5491
vn -0.8042 0.5491 -0.2277
vn -0.8042 0.5492 0.2273
vn -0.8042 0.2276 0.5491
vn -0.8042 -0.2273 0.5492
vn -0.8042 -0.5490 0.2276
vn -0.8042 -0.5492 -0.2273
vn -0.8042 0.2272 0.5492
vn -0.8042 -0.2276 0.5490
vn -0.8042 0.5490 0.2277
vn -0.8042 0.5492 -0.2273
vn -0.8042 0.2277 -0.5491
vn -0.8042 -0.2272 -0.5492
vn -0.8042 -0.5490 -0.2276
vn -0.8042 -0.5492 0.2273
vn -0.7066 0.7076 -0.0016
vn -0.7076 0.7066 -0.0016
vn -0.7071 0.7071 0.0000
vn -0.7076 0.7066 0.0016
vn -0.7066 0.7076 0.0016
vn -0.7071 0.7071 -0.0000
vn -0.7071 -0.0002 -0.7071
vn -0.5774 0.5774 -0.5773
vn -0.6303 -0.2973 0.7172
vn -0.6303 0.2969 0.7174
vn -0.6303 0.7172 0.2974
vn -0.6303 0.7174 -0.2969
vn -0.6303 0.2973 -0.7171
vn -0.6304 -0.2968 -0.7173
vn -0.6303 -0.7171 -0.2973
vn -0.6303 -0.7173 0.2969
vn -0.8042 0.2273 0.5492
vn -0.8042 -0.2276 0.5491
vn -0.8042 0.5491 0.2277
vn -0.8042 0.2276 -0.5490
vn -0.8043 -0.5490 -0.2276
vn -0.8042 0.5490 -0.2277
vn -0.8042 0.2277 0.5490
vn -0.8042 -0.5491 0.2276
vn -0.7072 -0.0002 0.7071
vn -0.7071 -0.0002 0.7071
vn -0.5774 0.5774 0.5773
vn -0.7067 -0.7075 0.0014
vn -0.7076 -0.7066 0.0014
vn -0.7068 -0.7075 -0.0014
vn -0.7076 -0.7066 -0.0013
vn -0.7075 -0.7067 -0.0014
vn -0.7067 -0.7075 -0.0014
vn -0.7075 -0.7067 0.0014
vn -0.5774 -0.5773 -0.5774
vn -0.7071 -0.7071 -0.0000
vn -0.7076 -0.7066 0.0013
vn -0.7076 -0.7066 -0.0014
vn -0.5774 -0.5773 0.5774
vn -0.7072 -0.7070 0.0000
vn 1.0000 0.0000 0.0000
vn 0.6303 -0.2973 -0.7172
vn 0.6303 0.2969 -0.7174
vn 0.6303 0.7172 -0.2974
vn 0.6303 0.7174 0.2969
vn 0.6303 0.2973 0.7172
vn 0.6303 -0.2968 0.7174
vn 0.6303 -0.7172 0.2974
vn 0.6303 -0.7174 -0.2969
vn 0.8042 0.2273 -0.5492
vn 0.8042 -0.2276 -0.5491
vn 0.8042 0.5491 -0.2277
vn 0.8042 0.5492 0.2273
vn 0.8042 0.2276 0.5491
vn 0.8042 -0.2273 0.5492
vn 0.8042 -0.5490 0.2276
vn 0.8042 -0.5492 -0.2273
vn 0.8042 -0.2276 0.5490
vn 0.8042 0.2272 0.5492
vn 0.8042 0.5490 0.2277
vn 0.8042 0.5492 -0.2273
vn 0.8042 0.2277 -0.5491
vn 0.8042 -0.2272 -0.5492
vn 0.8042 -0.5490 -0.2276
vn 0.8042 -0.5492 0.2273
vn 0.7066 0.7076 -0.0016
vn 0.7076 0.7066 -0.0016
vn 0.7071 0.7071 0.0000
vn 0.7076 0.7066 0.0016
vn 0.7066 0.7076 0.0016
vn 0.7071 0.7071 -0.0000
vn 0.7071 -0.0002 -0.7071
vn 0.5774 0.5774 -0.5773
vn 0.6303 -0.2973 0.7172
vn 0.6303 0.2969 0.7174
vn 0.6303 0.7172 0.2974
vn 0.6303 0.7174 -0.2969
vn 0.6303 0.2973 -0.7171
vn 0.6304 -0.2968 -0.7173
vn 0.6303 -0.7171 -0.2973
vn 0.6303 -0.7173 0.2969
vn 0.8042 -0.2276 0.5491
vn 0.8042 0.2273 0.5492
vn 0.8042 0.5491 0.2277
vn 1.0000 -0.0000 -0.0000
vn 0.8042 0.2276 -0.5490
vn 0.8043 -0.5490 -0.2276
vn 0.8041 -0.2277 -0.5491
vn 0.8042 0.5490 -0.2277
vn 0.8042 0.2277 0.5491
vn 1.0000 -0.0000 0.0000
vn 0.8042 -0.5491 0.2276
vn 1.0000 0.0000 -0.0000
vn 0.7071 -0.0002 0.7071
vn 0.7072 -0.0002 0.7071
vn 0.5774 0.5774 0.5773
vn 0.7067 -0.7075 0.0014
vn 0.7076 -0.7066 0.0014
vn 0.7068 -0.7075 -0.0014
vn 0.7076 -0.7066 -0.0013
vn 0.7075 -0.7067 -0.0014
vn 0.7067 -0.7075 -0.0014
vn 0.7075 -0.7067 0.0014
vn 0.5774 -0.5773 -0.5774
vn 0.7071 -0.7071 -0.0000
vn 0.7076 -0.7066 0.0013
vn 0.7076 -0.7066 -0.0014
vn 0.5774 -0.5773 0.5774
vn 0.7072 -0.7070 0.0000
# 134 vertex normals

vt 0.7803 1.0000 0.4142
vt 0.8750 1.0000 1.0000
vt 0.7500 1.0000 1.0000
vt 0.6250 1.0000 1.0000
vt 0.2197 1.0000 -0.4142
vt 0.1250 1.0000 -1.0000
vt 0.2500 1.0000 -1.0000
vt 0.5214 1.0000 -0.4142
# 8 texture coords

o Object001
g Object001
usemtl wire_229154215
s 1
f 1/1/1 2/2/1 3/3/1 4/4/1 5/5/1 6/6/1 7/7/1 8/8/1 
s off
f 2/2/1 9/2/2 10/3/3 3/3/1 
f 1/1/1 11/1/4 9/2/2 2/2/1 
f 8/8/1 12/8/5 11/1/4 1/1/1 
f 7/7/1 13/7/6 12/8/5 8/8/1 
f 6/6/1 14/6/7 13/7/6 7/7/1 
f 5/5/1 15/5/8 14/6/7 6/6/1 
f 4/4/1 16/4/9 15/5/8 5/5/1 
f 3/3/1 10/3/3 16/4/9 4/4/1 
f 17/2/10 18/2/1 19/3/1 20/3/11 
f 21/1/12 22/1/1 18/2/1 17/2/10 
f 23/8/13 24/8/1 22/1/1 21/1/12 
f 25/7/14 26/7/1 24/8/1 23/8/13 
f 27/6/15 28/6/1 26/7/1 25/7/14 
f 29/5/16 30/5/1 28/6/1 27/6/15 
f 31/4/17 32/4/1 30/5/1 29/5/16 
f 20/3/11 19/3/1 32/4/1 31/4/17 
f 33/2/18 34/3/19 35/3/1 36/2/1 
f 37/1/20 33/2/18 36/2/1 38/1/1 
f 39/8/21 37/1/20 38/1/1 40/8/1 
f 41/7/22 39/8/21 40/8/1 42/7/1 
f 43/6/23 41/7/22 42/7/1 44/6/1 
f 45/5/24 43/6/23 44/6/1 46/5/1 
f 47/4/25 45/5/24 46/5/1 48/4/1 
f 34/3/19 47/4/25 48/4/1 35/3/1 
f 36/2/1 35/3/1 49/3/1 50/2/1 
f 38/1/1 36/2/1 50/2/1 51/1/1 
f 40/8/1 38/1/1 51/1/1 52/8/1 
f 42/7/1 40/8/1 52/8/1 53/7/1 
f 44/6/1 42/7/1 53/7/1 54/6/1 
f 46/5/1 44/6/1 54/6/1 55/5/1 
f 48/4/1 46/5/1 55/5/1 56/4/1 
f 35/3/1 48/4/1 56/4/1 49/3/1 
f 49/3/1 19/3/1 18/2/1 50/2/1 
f 56/4/1 32/4/1 19/3/1 49/3/1 
f 28/6/1 30/5/1 57/5/26 58/6/27 
f 30/5/1 32/4/1 59/4/28 57/5/26 
f 55/5/1 54/6/1 60/6/29 61/5/30 
f 56/4/1 55/5/1 61/5/30 62/4/31 
f 32/4/1 56/4/1 62/4/31 59/4/28 
f 26/7/1 28/6/1 63/6/32 64/7/32 
f 28/6/1 58/6/27 65/6/33 63/6/32 
f 54/6/1 53/7/1 66/7/1 67/6/1 
f 60/6/29 54/6/1 67/6/1 68/6/28 
s 1
f 69/7/1 70/6/1 71/5/1 72/4/1 73/3/1 74/2/1 75/1/1 76/8/1 
s off
f 74/2/1 73/3/1 77/3/34 78/2/35 
f 75/1/1 74/2/1 78/2/35 79/1/36 
f 76/8/1 75/1/1 79/1/36 80/8/37 
f 69/7/1 76/8/1 80/8/37 81/7/38 
f 70/6/1 69/7/1 81/7/38 82/6/39 
f 71/5/1 70/6/1 82/6/39 83/5/40 
f 72/4/1 71/5/1 83/5/40 84/4/41 
f 73/3/1 72/4/1 84/4/41 77/3/34 
f 85/2/42 86/3/43 87/3/1 88/2/1 
f 89/1/44 85/2/42 88/2/1 90/1/1 
f 91/8/21 89/1/44 90/1/1 92/8/1 
f 93/7/45 91/8/21 92/8/1 94/7/1 
f 95/6/23 93/7/45 94/7/1 96/6/1 
f 97/5/46 95/6/23 96/6/1 98/5/1 
f 99/4/25 97/5/46 98/5/1 100/4/1 
f 86/3/43 99/4/25 100/4/1 87/3/1 
f 101/2/10 102/2/1 103/3/1 104/3/11 
f 105/1/47 106/1/1 102/2/1 101/2/10 
f 107/8/13 108/8/1 106/1/1 105/1/47 
f 109/7/48 110/7/1 108/8/1 107/8/13 
f 111/6/15 112/6/1 110/7/1 109/7/48 
f 113/5/49 114/5/1 112/6/1 111/6/15 
f 115/4/17 116/4/1 114/5/1 113/5/49 
f 104/3/11 103/3/1 116/4/1 115/4/17 
f 102/2/1 117/2/1 118/3/1 103/3/1 
f 106/1/1 119/1/1 117/2/1 102/2/1 
f 108/8/1 120/8/1 119/1/1 106/1/1 
f 110/7/1 121/7/1 120/8/1 108/8/1 
f 112/6/1 122/6/1 121/7/1 110/7/1 
f 114/5/1 123/5/1 122/6/1 112/6/1 
f 116/4/1 124/4/1 123/5/1 114/5/1 
f 103/3/1 118/3/1 124/4/1 116/4/1 
f 118/3/1 117/2/1 88/2/1 87/3/1 
f 124/4/1 118/3/1 87/3/1 100/4/1 
f 96/6/1 125/6/29 126/5/30 98/5/1 
f 98/5/1 126/5/30 127/4/28 100/4/1 
f 123/5/1 128/5/26 129/6/27 122/6/1 
f 124/4/1 130/4/31 128/5/26 123/5/1 
f 100/4/1 127/4/28 130/4/31 124/4/1 
f 94/7/1 131/7/50 132/6/51 96/6/1 
f 96/6/1 132/6/51 133/6/52 125/6/29 
f 122/6/1 67/6/1 134/7/1 121/7/1 
f 129/6/27 68/6/31 67/6/1 122/6/1 
f 18/2/1 22/1/1 135/1/53 136/2/54 
f 22/1/1 24/8/1 137/8/55 135/1/53 
f 24/8/1 26/7/1 138/7/56 137/8/55 
f 51/1/1 50/2/1 139/2/57 140/1/58 
f 52/8/1 51/1/1 140/1/58 141/8/53 
f 53/7/1 52/8/1 141/8/53 142/7/59 
f 50/2/1 18/2/1 136/2/54 139/2/57 
f 26/7/1 64/7/32 143/7/60 138/7/56 
f 66/7/1 53/7/1 142/7/59 144/7/61 
f 90/1/1 88/2/1 145/2/57 146/1/58 
f 92/8/1 90/1/1 146/1/58 147/8/53 
f 94/7/1 92/8/1 147/8/53 148/7/59 
f 117/2/1 119/1/1 149/1/53 150/2/62 
f 119/1/1 120/8/1 151/8/58 149/1/53 
f 120/8/1 121/7/1 152/7/63 151/8/58 
f 88/2/1 117/2/1 150/2/62 145/2/57 
f 131/7/50 94/7/1 148/7/59 153/7/64 
f 121/7/1 134/7/1 154/7/65 152/7/63 
s 1
f 155/3/66 156/2/66 157/1/66 158/8/66 159/7/66 160/6/66 161/5/66 162/4/66 
s off
f 163/3/67 164/2/68 156/2/66 155/3/66 
f 164/2/68 165/1/69 157/1/66 156/2/66 
f 165/1/69 166/8/70 158/8/66 157/1/66 
f 166/8/70 167/7/71 159/7/66 158/8/66 
f 167/7/71 168/6/72 160/6/66 159/7/66 
f 168/6/72 169/5/73 161/5/66 160/6/66 
f 169/5/73 170/4/74 162/4/66 161/5/66 
f 170/4/74 163/3/67 155/3/66 162/4/66 
f 171/3/66 172/2/66 173/2/75 174/3/76 
f 172/2/66 175/1/66 176/1/77 173/2/75 
f 175/1/66 177/8/66 178/8/78 176/1/77 
f 177/8/66 179/7/66 180/7/79 178/8/78 
f 179/7/66 181/6/66 182/6/80 180/7/79 
f 181/6/66 183/5/66 184/5/81 182/6/80 
f 183/5/66 185/4/66 186/4/82 184/5/81 
f 185/4/66 171/3/66 174/3/76 186/4/82 
f 187/3/66 188/3/83 189/2/84 190/2/66 
f 190/2/66 189/2/84 191/1/85 192/1/66 
f 192/1/66 191/1/85 193/8/86 194/8/66 
f 194/8/66 193/8/86 195/7/87 196/7/66 
f 196/7/66 195/7/87 197/6/88 198/6/66 
f 198/6/66 197/6/88 199/5/89 200/5/66 
f 200/5/66 199/5/89 201/4/90 202/4/66 
f 202/4/66 201/4/90 188/3/83 187/3/66 
f 203/3/66 187/3/66 190/2/66 204/2/66 
f 204/2/66 190/2/66 192/1/66 205/1/66 
f 205/1/66 192/1/66 194/8/66 206/8/66 
f 206/8/66 194/8/66 196/7/66 207/7/66 
f 207/7/66 196/7/66 198/6/66 208/6/66 
f 208/6/66 198/6/66 200/5/66 209/5/66 
f 209/5/66 200/5/66 202/4/66 210/4/66 
f 210/4/66 202/4/66 187/3/66 203/3/66 
f 172/2/66 171/3/66 203/3/66 204/2/66 
f 171/3/66 185/4/66 210/4/66 203/3/66 
f 211/5/91 183/5/66 181/6/66 212/6/92 
f 213/4/93 185/4/66 183/5/66 211/5/91 
f 214/6/94 208/6/66 209/5/66 215/5/95 
f 215/5/95 209/5/66 210/4/66 216/4/96 
f 216/4/96 210/4/66 185/4/66 213/4/93 
f 217/6/97 181/6/66 179/7/66 218/7/97 
f 219/6/98 212/6/92 181/6/66 217/6/97 
f 220/7/66 207/7/66 208/6/66 221/6/66 
f 221/6/66 208/6/66 214/6/94 222/6/93 
s 1
f 223/5/66 224/6/66 225/7/66 226/8/66 227/1/66 228/2/66 229/3/66 230/4/66 
s off
f 231/3/99 229/3/66 228/2/66 232/2/100 
f 232/2/100 228/2/66 227/1/66 233/1/101 
f 233/1/101 227/1/66 226/8/66 234/8/102 
f 234/8/102 226/8/66 225/7/66 235/7/103 
f 235/7/103 225/7/66 224/6/66 236/6/104 
f 236/6/104 224/6/66 223/5/66 237/5/105 
f 237/5/105 223/5/66 230/4/66 238/4/106 
f 238/4/106 230/4/66 229/3/66 231/3/99 
f 239/3/66 240/3/107 241/2/108 242/2/66 
f 242/2/66 241/2/108 243/1/109 244/1/110 
f 244/1/110 243/1/109 245/8/86 246/8/66 
f 246/8/66 245/8/86 247/7/111 248/7/66 
f 248/7/66 247/7/111 249/6/88 250/6/66 
f 250/6/66 249/6/88 251/5/112 252/5/66 
f 252/5/66 251/5/112 253/4/90 254/4/66 
f 254/4/66 253/4/90 240/3/107 239/3/66 
f 255/3/110 256/2/66 257/2/75 258/3/113 
f 256/2/66 259/1/66 260/1/114 257/2/75 
f 259/1/66 261/8/66 262/8/78 260/1/114 
f 261/8/66 263/7/66 264/7/115 262/8/78 
f 263/7/66 265/6/66 266/6/80 264/7/115 
f 265/6/66 267/5/116 268/5/117 266/6/80 
f 267/5/116 269/4/66 270/4/82 268/5/117 
f 269/4/66 255/3/110 258/3/113 270/4/82 
f 271/3/66 272/2/66 256/2/66 255/3/110 
f 272/2/66 273/1/66 259/1/66 256/2/66 
f 273/1/66 274/8/110 261/8/66 259/1/66 
f 274/8/110 275/7/66 263/7/66 261/8/66 
f 275/7/66 276/6/66 265/6/66 263/7/66 
f 276/6/66 277/5/118 267/5/116 265/6/66 
f 277/5/118 278/4/66 269/4/66 267/5/116 
f 278/4/66 271/3/66 255/3/110 269/4/66 
f 242/2/66 272/2/66 271/3/66 239/3/66 
f 239/3/66 271/3/66 278/4/66 254/4/66 
f 279/5/95 280/6/94 250/6/66 252/5/66 
f 281/4/93 279/5/95 252/5/66 254/4/66 
f 282/6/92 283/5/91 277/5/118 276/6/66 
f 283/5/91 284/4/96 278/4/66 277/5/118 
f 284/4/96 281/4/93 254/4/66 278/4/66 
f 285/6/119 286/7/120 248/7/66 250/6/66 
f 287/6/121 285/6/119 250/6/66 280/6/94 
f 288/7/66 221/6/66 276/6/66 275/7/66 
f 221/6/66 222/6/96 282/6/92 276/6/66 
f 289/1/122 175/1/66 172/2/66 290/2/123 
f 291/8/124 177/8/66 175/1/66 289/1/122 
f 292/7/125 179/7/66 177/8/66 291/8/124 
f 293/2/126 204/2/66 205/1/66 294/1/127 
f 294/1/127 205/1/66 206/8/66 295/8/122 
f 295/8/122 206/8/66 207/7/66 296/7/128 
f 290/2/123 172/2/66 204/2/66 293/2/126 
f 297/7/129 218/7/97 179/7/66 292/7/125 
f 296/7/128 207/7/66 220/7/66 298/7/130 
f 299/2/126 242/2/66 244/1/110 300/1/127 
f 300/1/127 244/1/110 246/8/66 301/8/122 
f 301/8/122 246/8/66 248/7/66 302/7/128 
f 303/1/122 273/1/66 272/2/66 304/2/131 
f 305/8/127 274/8/110 273/1/66 303/1/122 
f 306/7/132 275/7/66 274/8/110 305/8/127 
f 304/2/131 272/2/66 242/2/66 299/2/126 
f 302/7/128 248/7/66 286/7/120 307/7/133 
f 308/7/134 288/7/66 275/7/66 306/7/132 
s 1
f 34/3/19 33/2/18 189/2/84 188/3/83 
f 33/2/18 37/1/20 191/1/85 189/2/84 
s 2
f 37/1/20 39/8/21 193/8/86 191/1/85 
f 39/8/21 41/7/22 195/7/87 193/8/86 
f 41/7/22 43/6/23 197/6/88 195/7/87 
s 4
f 43/6/23 45/5/24 199/5/89 197/6/88 
s 1
f 45/5/24 47/4/25 201/4/90 199/5/89 
f 47/4/25 34/3/19 188/3/83 201/4/90 
f 58/6/27 57/5/26 211/5/91 212/6/92 
f 57/5/26 59/4/28 213/4/93 211/5/91 
f 61/5/30 60/6/29 214/6/94 215/5/95 
f 62/4/31 61/5/30 215/5/95 216/4/96 
f 59/4/28 62/4/31 216/4/96 213/4/93 
s 2
f 64/7/32 63/6/32 217/6/97 218/7/97 
s 1
f 65/6/33 58/6/27 212/6/92 219/6/98 
s 2
f 63/6/32 65/6/33 219/6/98 217/6/97 
s 1
f 60/6/29 68/6/28 222/6/93 214/6/94 
f 101/2/10 104/3/11 258/3/113 257/2/75 
f 105/1/47 101/2/10 257/2/75 260/1/114 
s 2
f 107/8/13 105/1/47 260/1/114 262/8/78 
f 109/7/48 107/8/13 262/8/78 264/7/115 
s 1
f 111/6/15 109/7/48 264/7/115 266/6/80 
s 2
f 113/5/49 111/6/15 266/6/80 268/5/117 
s 1
f 115/4/17 113/5/49 268/5/117 270/4/82 
f 104/3/11 115/4/17 270/4/82 258/3/113 
f 126/5/30 125/6/29 280/6/94 279/5/95 
f 127/4/28 126/5/30 279/5/95 281/4/93 
f 129/6/27 128/5/26 283/5/91 282/6/92 
f 128/5/26 130/4/31 284/4/96 283/5/91 
f 130/4/31 127/4/28 281/4/93 284/4/96 
s 2
f 132/6/51 131/7/50 286/7/120 285/6/119 
f 133/6/52 132/6/51 285/6/119 287/6/121 
s 1
f 125/6/29 133/6/52 287/6/121 280/6/94 
f 68/6/31 129/6/27 282/6/92 222/6/96 
f 136/2/54 135/1/53 289/1/122 290/2/123 
f 135/1/53 137/8/55 291/8/124 289/1/122 
f 137/8/55 138/7/56 292/7/125 291/8/124 
f 140/1/58 139/2/57 293/2/126 294/1/127 
f 141/8/53 140/1/58 294/1/127 295/8/122 
f 142/7/59 141/8/53 295/8/122 296/7/128 
f 139/2/57 136/2/54 290/2/123 293/2/126 
s 2
f 143/7/60 64/7/32 218/7/97 297/7/129 
s 1
f 138/7/56 143/7/60 297/7/129 292/7/125 
f 144/7/61 142/7/59 296/7/128 298/7/130 
f 146/1/58 145/2/57 299/2/126 300/1/127 
f 147/8/53 146/1/58 300/1/127 301/8/122 
f 148/7/59 147/8/53 301/8/122 302/7/128 
f 150/2/62 149/1/53 303/1/122 304/2/131 
f 149/1/53 151/8/58 305/8/127 303/1/122 
f 151/8/58 152/7/63 306/7/132 305/8/127 
f 145/2/57 150/2/62 304/2/131 299/2/126 
f 153/7/64 148/7/59 302/7/128 307/7/133 
s 2
f 131/7/50 153/7/64 307/7/133 286/7/120 
s 1
f 152/7/63 154/7/65 308/7/134 306/7/132 
s off
f 17/2/10 20/3/11 10/3/3 9/2/2 
f 20/3/11 31/4/17 16/4/9 10/3/3 
f 31/4/17 29/5/16 15/5/8 16/4/9 
f 29/5/16 27/6/15 14/6/7 15/5/8 
f 27/6/15 25/7/14 13/7/6 14/6/7 
f 25/7/14 23/8/13 12/8/5 13/7/6 
f 23/8/13 21/1/12 11/1/4 12/8/5 
f 21/1/12 17/2/10 9/2/2 11/1/4 
f 86/3/43 85/2/42 78/2/35 77/3/34 
f 85/2/42 89/1/44 79/1/36 78/2/35 
f 89/1/44 91/8/21 80/8/37 79/1/36 
f 91/8/21 93/7/45 81/7/38 80/8/37 
f 93/7/45 95/6/23 82/6/39 81/7/38 
f 95/6/23 97/5/46 83/5/40 82/6/39 
f 97/5/46 99/4/25 84/4/41 83/5/40 
f 99/4/25 86/3/43 77/3/34 84/4/41 
f 241/2/108 240/3/107 231/3/99 232/2/100 
f 240/3/107 253/4/90 238/4/106 231/3/99 
f 253/4/90 251/5/112 237/5/105 238/4/106 
f 251/5/112 249/6/88 236/6/104 237/5/105 
f 249/6/88 247/7/111 235/7/103 236/6/104 
f 247/7/111 245/8/86 234/8/102 235/7/103 
f 245/8/86 243/1/109 233/1/101 234/8/102 
f 243/1/109 241/2/108 232/2/100 233/1/101 
f 174/3/76 173/2/75 164/2/68 163/3/67 
f 173/2/75 176/1/77 165/1/69 164/2/68 
f 176/1/77 178/8/78 166/8/70 165/1/69 
f 178/8/78 180/7/79 167/7/71 166/8/70 
f 180/7/79 182/6/80 168/6/72 167/7/71 
f 182/6/80 184/5/81 169/5/73 168/6/72 
f 184/5/81 186/4/82 170/4/74 169/5/73 
f 186/4/82 174/3/76 163/3/67 170/4/74 
# 298 polygons

