# 3ds Max Wavefront OBJ Exporter v0.97b - (c)2007 guruware
# File Created: 23.01.2018 22:10:35

mtllib ripiano con buco.mtl

#
# object Object_giusto
#

v  0.8674 416.7954 9.7766
v  0.8674 416.9037 9.8848
v  0.8674 417.0568 9.8847
v  0.8674 416.9802 9.7000
v  0.8674 416.8845 9.9311
v  0.8674 417.0760 9.9311
v  0.8674 416.7490 9.7958
v  0.8674 416.7953 9.6235
v  0.8674 416.7490 9.6043
v  0.8674 416.9036 9.5152
v  0.8674 416.8843 9.4689
v  0.8674 417.0566 9.5152
v  0.8674 417.0758 9.4688
v  0.8674 417.1649 9.6234
v  0.8674 417.2113 9.6042
v  0.8674 417.1649 9.7765
v  0.8674 417.2113 9.7956
v  -0.1326 416.8845 9.9311
v  -0.1326 416.8657 9.9767
v  -0.1326 417.0948 9.9766
v  -0.1326 417.0760 9.9311
v  -0.1326 416.7490 9.7958
v  -0.1326 416.7036 9.8147
v  -0.1326 416.7490 9.6043
v  -0.1326 416.7034 9.5855
v  -0.1326 416.8843 9.4689
v  -0.1326 416.8655 9.4234
v  -0.1326 417.0758 9.4688
v  -0.1326 417.0946 9.4233
v  -0.1326 417.2113 9.6042
v  -0.1326 417.2568 9.5853
v  -0.1326 417.2113 9.7956
v  -0.1326 417.2568 9.8145
v  -0.1326 416.9037 10.8652
v  -0.1326 417.0568 10.8652
v  -0.1326 417.0760 10.8189
v  -0.1326 416.8845 10.8188
v  -0.1326 416.7954 10.9734
v  -0.1326 416.7491 10.9542
v  -0.1326 416.7953 11.1265
v  -0.1326 416.7490 11.1456
v  -0.1326 416.9036 11.2347
v  -0.1326 416.8843 11.2811
v  -0.1326 417.0566 11.2348
v  -0.1326 417.0758 11.2812
v  -0.1326 417.1649 11.1266
v  -0.1326 417.2112 11.1458
v  -0.1326 417.1649 10.9735
v  -0.1326 417.2113 10.9543
v  -0.1326 417.0948 10.7734
v  -0.1326 416.8657 10.7733
v  -0.1326 416.7036 10.9353
v  -0.1326 416.7035 11.1645
v  -0.1326 416.8655 11.3266
v  -0.1326 417.0946 11.3267
v  -0.1326 417.2568 11.1647
v  -0.1326 417.2568 10.9355
v  -0.1326 417.9742 9.9786
v  -0.1326 417.9742 9.8145
v  -0.1326 417.9742 9.5853
v  -0.1326 417.9735 9.4233
v  -0.1326 417.9735 11.3267
v  -0.1326 417.9742 11.1647
v  -0.1326 417.9742 10.9355
v  -0.1326 417.0946 8.6731
v  -0.1326 416.8655 8.6732
v  -0.1326 417.9735 8.6731
v  0.8674 416.9036 31.2372
v  0.8674 417.0566 31.2372
v  0.8674 416.9802 31.0524
v  0.8674 416.7953 31.1289
v  0.8674 416.9037 30.8676
v  0.8674 417.0568 30.8677
v  0.8674 417.0760 30.8213
v  0.8674 416.8845 30.8213
v  0.8674 416.7954 30.9758
v  0.8674 416.7491 30.9566
v  0.8674 416.7490 31.1481
v  0.8674 416.8843 31.2835
v  0.8674 417.0758 31.2836
v  0.8674 417.1649 31.1290
v  0.8674 417.2113 31.1483
v  0.8674 417.1650 30.9760
v  0.8674 417.2113 30.9568
v  -0.1326 416.8845 30.8213
v  -0.1326 417.0760 30.8213
v  -0.1326 417.0948 30.7758
v  -0.1326 416.8657 30.7758
v  -0.1326 416.7491 30.9566
v  -0.1326 416.7036 30.9378
v  -0.1326 416.7490 31.1481
v  -0.1326 416.7035 31.1669
v  -0.1326 416.8843 31.2835
v  -0.1326 416.8655 31.3290
v  -0.1326 417.0758 31.2836
v  -0.1326 417.0946 31.3291
v  -0.1326 417.2113 31.1483
v  -0.1326 417.2568 31.1671
v  -0.1326 417.2113 30.9568
v  -0.1326 417.2568 30.9379
v  -0.1326 416.9037 29.8872
v  -0.1326 416.8845 29.9336
v  -0.1326 417.0760 29.9335
v  -0.1326 417.0567 29.8872
v  -0.1326 416.7954 29.7790
v  -0.1326 416.7491 29.7983
v  -0.1326 416.7953 29.6260
v  -0.1326 416.7490 29.6068
v  -0.1326 416.9036 29.5177
v  -0.1326 416.8843 29.4713
v  -0.1326 417.0566 29.5176
v  -0.1326 417.0758 29.4713
v  -0.1326 417.1649 29.6258
v  -0.1326 417.2112 29.6066
v  -0.1326 417.1649 29.7789
v  -0.1326 417.2114 29.7981
v  -0.1326 416.8656 29.9791
v  -0.1326 417.0948 29.9791
v  -0.1326 416.7036 29.8171
v  -0.1326 416.7035 29.5879
v  -0.1326 416.8655 29.4258
v  -0.1326 417.0947 29.4257
v  -0.1326 417.2568 29.5877
v  -0.1326 417.2569 29.8169
v  -0.1326 417.9742 29.9802
v  -0.1326 417.9742 29.8169
v  -0.1326 417.9735 31.3291
v  -0.1326 417.9742 31.1671
v  -0.1326 417.9742 30.9380
v  -0.1326 417.9742 29.5877
v  -0.1326 417.9735 29.4257
v  -0.1326 416.8655 32.0793
v  -0.1326 417.0946 32.0793
v  -0.1326 417.9735 32.0793
v  -0.1326 416.0504 9.8147
v  -0.1326 416.0510 9.9767
v  -0.1326 416.0504 9.5855
v  -0.1326 416.0510 9.4234
v  -0.1326 416.0510 10.7733
v  -0.1326 416.0504 10.9353
v  -0.1326 416.0504 11.1645
v  -0.1326 416.0510 11.3266
v  -0.1326 416.0510 8.6732
v  -0.1326 416.0511 30.7758
v  -0.1326 416.0504 30.9378
v  -0.1326 416.0504 31.1669
v  -0.1326 416.0510 31.3290
v  -0.1326 416.0504 29.8171
v  -0.1326 416.0510 29.9791
v  -0.1326 416.0504 29.5879
v  -0.1326 416.0510 29.4258
v  -0.1326 416.0510 32.0793
v  54.8674 416.7953 9.6235
v  54.8674 416.9036 9.5152
v  54.8674 417.0566 9.5152
v  54.8674 416.9802 9.7000
v  54.8674 417.0760 9.9311
v  54.8674 416.8845 9.9312
v  54.8674 416.9037 9.8848
v  54.8674 417.0568 9.8847
v  54.8674 416.7490 9.7958
v  54.8674 416.7954 9.7766
v  54.8674 416.7490 9.6043
v  54.8674 416.8843 9.4689
v  54.8674 417.0758 9.4688
v  54.8674 417.2113 9.6042
v  54.8674 417.1649 9.6234
v  54.8674 417.2113 9.7957
v  54.8674 417.1649 9.7765
v  55.8674 417.0948 9.9766
v  55.8674 416.8657 9.9767
v  55.8674 416.8845 9.9312
v  55.8674 417.0760 9.9311
v  55.8674 416.7036 9.8147
v  55.8674 416.7490 9.7958
v  55.8674 416.7034 9.5855
v  55.8674 416.7490 9.6043
v  55.8674 416.8655 9.4234
v  55.8674 416.8843 9.4689
v  55.8674 417.0946 9.4233
v  55.8674 417.0758 9.4688
v  55.8674 417.2568 9.5853
v  55.8674 417.2113 9.6042
v  55.8674 417.2568 9.8145
v  55.8674 417.2113 9.7957
v  55.8674 417.0760 10.8189
v  55.8674 417.0568 10.8652
v  55.8674 416.9037 10.8652
v  55.8674 416.8845 10.8188
v  55.8674 416.7954 10.9734
v  55.8674 416.7491 10.9542
v  55.8674 416.7953 11.1265
v  55.8674 416.7490 11.1457
v  55.8674 416.9036 11.2347
v  55.8674 416.8843 11.2811
v  55.8674 417.0566 11.2348
v  55.8674 417.0758 11.2812
v  55.8674 417.1649 11.1266
v  55.8674 417.2112 11.1458
v  55.8674 417.1649 10.9735
v  55.8674 417.2113 10.9543
v  55.8674 417.0948 10.7734
v  55.8674 416.8657 10.7733
v  55.8674 416.7036 10.9353
v  55.8674 416.7035 11.1645
v  55.8674 416.8655 11.3266
v  55.8674 417.0946 11.3267
v  55.8674 417.2568 11.1647
v  55.8674 417.2568 10.9355
v  55.8674 417.9742 10.7745
v  55.8674 417.9742 10.9355
v  55.8674 417.9742 9.5853
v  55.8674 417.9735 9.4233
v  55.8674 417.9742 9.8145
v  55.8674 417.9735 11.3267
v  55.8674 417.9742 11.1647
v  55.8674 417.0946 8.6731
v  55.8674 416.8655 8.6732
v  55.8674 417.9735 8.6731
v  54.8674 416.9802 31.0525
v  54.8674 416.7954 30.9759
v  54.8674 416.9037 30.8677
v  54.8674 417.0568 30.8677
v  54.8674 417.0760 30.8213
v  54.8674 416.8845 30.8213
v  54.8674 416.7491 30.9566
v  54.8674 416.7953 31.1289
v  54.8674 416.7490 31.1481
v  54.8674 416.9036 31.2372
v  54.8674 416.8843 31.2836
v  54.8674 417.0566 31.2372
v  54.8674 417.0758 31.2836
v  54.8674 417.1649 31.1290
v  54.8674 417.2113 31.1483
v  54.8674 417.1650 30.9760
v  54.8674 417.2113 30.9568
v  55.8674 417.0948 30.7758
v  55.8674 417.0760 30.8213
v  55.8674 416.8845 30.8213
v  55.8674 416.8657 30.7758
v  55.8674 416.7491 30.9566
v  55.8674 416.7036 30.9378
v  55.8674 416.7490 31.1481
v  55.8674 416.7035 31.1669
v  55.8674 416.8843 31.2836
v  55.8674 416.8655 31.3291
v  55.8674 417.0758 31.2836
v  55.8674 417.0946 31.3291
v  55.8674 417.2113 31.1483
v  55.8674 417.2568 31.1672
v  55.8674 417.2113 30.9568
v  55.8674 417.2568 30.9380
v  55.8674 417.0760 29.9336
v  55.8674 416.8845 29.9336
v  55.8674 416.9037 29.8873
v  55.8674 417.0567 29.8872
v  55.8674 416.7491 29.7983
v  55.8674 416.7954 29.7790
v  55.8674 416.7490 29.6068
v  55.8674 416.7953 29.6260
v  55.8674 416.8843 29.4713
v  55.8674 416.9036 29.5177
v  55.8674 417.0758 29.4713
v  55.8674 417.0566 29.5176
v  55.8674 417.2112 29.6066
v  55.8674 417.1649 29.6259
v  55.8674 417.2114 29.7981
v  55.8674 417.1649 29.7789
v  55.8674 417.0948 29.9791
v  55.8674 416.8656 29.9791
v  55.8674 416.7036 29.8171
v  55.8674 416.7035 29.5879
v  55.8674 416.8655 29.4258
v  55.8674 417.0947 29.4258
v  55.8674 417.2568 29.5877
v  55.8674 417.2569 29.8169
v  55.8674 417.9742 30.7771
v  55.8674 417.9742 30.9380
v  55.8674 417.9742 31.1671
v  55.8674 417.9735 31.3291
v  55.8674 417.9735 29.4258
v  55.8674 417.9742 29.5877
v  55.8674 417.9742 29.8169
v  55.8674 417.0946 32.0794
v  55.8674 416.8655 32.0793
v  55.8674 417.9735 32.0793
v  55.8674 416.0504 9.8147
v  55.8674 416.0510 9.9767
v  55.8674 416.0504 9.5855
v  55.8674 416.0510 9.4234
v  55.8674 416.0510 10.7733
v  55.8674 416.0504 10.9353
v  55.8674 416.0504 11.1645
v  55.8674 416.0510 11.3266
v  55.8674 416.0510 8.6732
v  55.8674 416.0511 30.7758
v  55.8674 416.0504 30.9378
v  55.8674 416.0504 31.1669
v  55.8674 416.0510 31.3291
v  55.8674 416.0504 29.8172
v  55.8674 416.0510 29.9791
v  55.8674 416.0504 29.5879
v  55.8674 416.0510 29.4258
v  55.8674 416.0510 32.0793
v  -0.1326 417.9742 10.7745
v  55.8674 417.9742 9.9786
v  55.8674 417.9742 29.9802
v  -0.1326 417.9742 30.7771
# 308 vertices

vn -1.0000 -0.0000 -0.0000
vn -0.6303 0.2969 -0.7174
vn -0.6303 -0.2973 -0.7172
vn -0.6303 0.7172 -0.2974
vn -0.6303 0.7174 0.2969
vn -0.6303 0.2973 0.7172
vn -0.6303 -0.2968 0.7174
vn -0.6303 -0.7172 0.2974
vn -0.6303 -0.7174 -0.2969
vn -0.8042 0.2273 -0.5492
vn -0.8042 -0.2276 -0.5491
vn -0.8042 0.5491 -0.2277
vn -0.8042 0.5492 0.2273
vn -0.8042 0.2276 0.5491
vn -0.8042 -0.2273 0.5492
vn -0.8042 -0.5490 0.2276
vn -0.8042 -0.5492 -0.2273
vn -0.8042 0.2272 0.5492
vn -0.8042 -0.2276 0.5490
vn -0.8042 0.5490 0.2277
vn -0.8042 0.5492 -0.2273
vn -0.8042 0.2277 -0.5491
vn -0.8042 -0.2272 -0.5492
vn -0.8042 -0.5490 -0.2276
vn -0.8042 -0.5492 0.2273
vn -0.7071 0.7071 -0.0000
vn -0.7071 0.7071 0.0000
vn -0.7066 0.7076 -0.0016
vn -0.7076 0.7066 -0.0016
vn -0.7076 0.7066 0.0016
vn -0.7066 0.7076 0.0016
vn -0.7072 0.7070 0.0000
vn -0.7071 -0.0002 -0.7071
vn -0.5774 0.5774 -0.5773
vn -0.6303 -0.2973 0.7172
vn -0.6303 0.2969 0.7174
vn -0.6303 0.7172 0.2974
vn -0.6303 0.7174 -0.2969
vn -0.6303 0.2973 -0.7171
vn -0.6304 -0.2968 -0.7173
vn -0.6303 -0.7171 -0.2973
vn -0.6303 -0.7173 0.2969
vn -0.8042 0.2273 0.5492
vn -0.8042 -0.2276 0.5491
vn -0.8042 0.5491 0.2277
vn -0.8042 0.2276 -0.5490
vn -0.8043 -0.5490 -0.2276
vn -0.8042 0.5490 -0.2277
vn -0.8042 0.2277 0.5490
vn -0.8042 -0.5491 0.2276
vn -0.7072 -0.0002 0.7071
vn -0.7071 -0.0002 0.7071
vn -0.5774 0.5774 0.5773
vn -0.7067 -0.7075 0.0014
vn -0.7076 -0.7066 0.0014
vn -0.7068 -0.7075 -0.0014
vn -0.7076 -0.7066 -0.0013
vn -0.7075 -0.7067 -0.0014
vn -0.7067 -0.7075 -0.0014
vn -0.7075 -0.7067 0.0014
vn -0.5774 -0.5773 -0.5774
vn -0.7076 -0.7066 0.0013
vn -0.5774 -0.5773 0.5774
vn 1.0000 0.0000 0.0000
vn 0.6303 0.2969 -0.7174
vn 0.6303 0.7172 -0.2974
vn 0.6303 0.7174 0.2969
vn 0.6303 0.2973 0.7172
vn 0.6303 -0.2968 0.7174
vn 0.6303 -0.7172 0.2974
vn 0.6303 -0.7174 -0.2969
vn 0.8042 0.2273 -0.5492
vn 0.8042 0.5491 -0.2277
vn 0.8042 0.5492 0.2273
vn 0.8042 0.2276 0.5491
vn 0.8042 -0.2273 0.5492
vn 0.8042 -0.5490 0.2276
vn 0.8042 -0.5492 -0.2273
vn 0.8042 -0.2276 0.5490
vn 0.8042 0.2272 0.5492
vn 0.8042 0.5490 0.2277
vn 0.8042 0.5492 -0.2273
vn 0.8042 0.2277 -0.5491
vn 0.8042 -0.2272 -0.5492
vn 0.8042 -0.5490 -0.2276
vn 0.8042 -0.5492 0.2273
vn 0.7071 0.7072 0.0000
vn 0.7071 0.7071 0.0000
vn 0.7066 0.7076 -0.0016
vn 0.7076 0.7066 -0.0016
vn 0.7071 0.7071 -0.0000
vn 0.7076 0.7066 0.0016
vn 0.7066 0.7076 0.0016
vn 0.7071 -0.0002 -0.7071
vn 0.5774 0.5774 -0.5773
vn 0.6303 -0.2973 0.7172
vn 0.6303 0.2969 0.7174
vn 0.6303 0.7172 0.2974
vn 0.6303 0.7174 -0.2969
vn 0.6303 0.2973 -0.7171
vn 0.6304 -0.2968 -0.7173
vn 0.6303 -0.7171 -0.2973
vn 0.6303 -0.7173 0.2969
vn 0.8042 -0.2276 0.5491
vn 0.8042 0.2273 0.5492
vn 0.8042 0.5491 0.2277
vn 1.0000 -0.0000 -0.0000
vn 0.8042 0.2276 -0.5490
vn 0.8043 -0.5490 -0.2276
vn 0.8041 -0.2277 -0.5491
vn 0.8042 0.5490 -0.2277
vn 0.8042 0.2277 0.5491
vn 1.0000 -0.0000 0.0000
vn 0.8042 -0.5491 0.2276
vn 1.0000 0.0000 -0.0000
vn 0.7071 -0.0002 0.7071
vn 0.7072 -0.0002 0.7071
vn 0.5774 0.5774 0.5773
vn 0.7067 -0.7075 0.0014
vn 0.7076 -0.7066 0.0014
vn 0.7068 -0.7075 -0.0014
vn 0.7076 -0.7066 -0.0013
vn 0.7075 -0.7067 -0.0014
vn 0.7067 -0.7075 -0.0014
vn 0.7075 -0.7067 0.0014
vn 0.5774 -0.5773 -0.5774
vn 0.7076 -0.7066 0.0013
vn 0.5774 -0.5773 0.5774
# 128 vertex normals

vt 0.7803 1.0000 0.4142
vt 0.8750 1.0000 1.0000
vt 0.7500 1.0000 1.0000
vt 0.5000 1.0000 -0.0000
vt 0.5214 1.0000 -0.4142
vt 0.2500 1.0000 -1.0000
vt 0.1250 1.0000 -1.0000
vt 0.2197 1.0000 -0.4142
vt 0.6250 1.0000 1.0000
vt 0.5732 1.0000 0.2929
# 10 texture coords

o Object_giusto
g Object_giusto
usemtl wire_229154215
s 1
f 1/1/1 2/2/1 3/3/1 4/4/1 
s off
f 2/2/1 5/2/2 6/3/3 3/3/1 
f 1/1/1 7/1/4 5/2/2 2/2/1 
f 8/5/1 9/5/5 7/1/4 1/1/1 
f 10/6/1 11/6/6 9/5/5 8/5/1 
f 12/7/1 13/7/7 11/6/6 10/6/1 
f 14/8/1 15/8/8 13/7/7 12/7/1 
f 16/9/1 17/9/9 15/8/8 14/8/1 
f 3/3/1 6/3/3 17/9/9 16/9/1 
f 18/2/10 19/2/1 20/3/1 21/3/11 
f 22/1/12 23/1/1 19/2/1 18/2/10 
f 24/5/13 25/5/1 23/1/1 22/1/12 
f 26/6/14 27/6/1 25/5/1 24/5/13 
f 28/7/15 29/7/1 27/6/1 26/6/14 
f 30/8/16 31/8/1 29/7/1 28/7/15 
f 32/9/17 33/9/1 31/8/1 30/8/16 
f 21/3/11 20/3/1 33/9/1 32/9/17 
f 34/2/18 35/3/19 36/3/1 37/2/1 
f 38/1/20 34/2/18 37/2/1 39/1/1 
f 40/5/21 38/1/20 39/1/1 41/5/1 
f 42/6/22 40/5/21 41/5/1 43/6/1 
f 44/7/23 42/6/22 43/6/1 45/7/1 
f 46/8/24 44/7/23 45/7/1 47/8/1 
f 48/9/25 46/8/24 47/8/1 49/9/1 
f 35/3/19 48/9/25 49/9/1 36/3/1 
f 37/2/1 36/3/1 50/3/1 51/2/1 
f 39/1/1 37/2/1 51/2/1 52/1/1 
f 41/5/1 39/1/1 52/1/1 53/5/1 
f 43/6/1 41/5/1 53/5/1 54/6/1 
f 45/7/1 43/6/1 54/6/1 55/7/1 
f 47/8/1 45/7/1 55/7/1 56/8/1 
f 49/9/1 47/8/1 56/8/1 57/9/1 
f 36/3/1 49/9/1 57/9/1 50/3/1 
f 50/3/1 20/3/1 19/2/1 51/2/1 
f 58/9/26 59/9/27 33/9/1 20/3/1 
f 29/7/1 31/8/1 60/8/28 61/7/29 
f 31/8/1 33/9/1 59/9/27 60/8/28 
f 56/8/1 55/7/1 62/7/30 63/8/31 
f 57/9/1 56/8/1 63/8/31 64/9/32 
f 27/6/1 29/7/1 65/7/33 66/6/33 
f 29/7/1 61/7/29 67/7/34 65/7/33 
s 1
f 68/6/1 69/7/1 70/10/1 71/5/1 
s off
f 72/2/1 73/3/1 74/3/35 75/2/36 
f 76/1/1 72/2/1 75/2/36 77/1/37 
f 71/5/1 76/1/1 77/1/37 78/5/38 
f 68/6/1 71/5/1 78/5/38 79/6/39 
f 69/7/1 68/6/1 79/6/39 80/7/40 
f 81/8/1 69/7/1 80/7/40 82/8/41 
f 83/9/1 81/8/1 82/8/41 84/9/42 
f 73/3/1 83/9/1 84/9/42 74/3/35 
f 85/2/43 86/3/44 87/3/1 88/2/1 
f 89/1/45 85/2/43 88/2/1 90/1/1 
f 91/5/21 89/1/45 90/1/1 92/5/1 
f 93/6/46 91/5/21 92/5/1 94/6/1 
f 95/7/23 93/6/46 94/6/1 96/7/1 
f 97/8/47 95/7/23 96/7/1 98/8/1 
f 99/9/25 97/8/47 98/8/1 100/9/1 
f 86/3/44 99/9/25 100/9/1 87/3/1 
f 101/2/10 102/2/1 103/3/1 104/3/11 
f 105/1/48 106/1/1 102/2/1 101/2/10 
f 107/5/13 108/5/1 106/1/1 105/1/48 
f 109/6/49 110/6/1 108/5/1 107/5/13 
f 111/7/15 112/7/1 110/6/1 109/6/49 
f 113/8/50 114/8/1 112/7/1 111/7/15 
f 115/9/17 116/9/1 114/8/1 113/8/50 
f 104/3/11 103/3/1 116/9/1 115/9/17 
f 102/2/1 117/2/1 118/3/1 103/3/1 
f 106/1/1 119/1/1 117/2/1 102/2/1 
f 108/5/1 120/5/1 119/1/1 106/1/1 
f 110/6/1 121/6/1 120/5/1 108/5/1 
f 112/7/1 122/7/1 121/6/1 110/6/1 
f 114/8/1 123/8/1 122/7/1 112/7/1 
f 116/9/1 124/9/1 123/8/1 114/8/1 
f 103/3/1 118/3/1 124/9/1 116/9/1 
f 118/3/1 117/2/1 88/2/1 87/3/1 
f 124/9/1 118/3/1 125/9/27 126/9/26 
f 96/7/1 127/7/30 128/8/31 98/8/1 
f 98/8/1 128/8/31 129/9/27 100/9/1 
f 123/8/1 130/8/28 131/7/29 122/7/1 
f 124/9/1 126/9/26 130/8/28 123/8/1 
f 94/6/1 132/6/51 133/7/52 96/7/1 
f 96/7/1 133/7/52 134/7/53 127/7/30 
f 19/2/1 23/1/1 135/1/54 136/2/55 
f 23/1/1 25/5/1 137/5/56 135/1/54 
f 25/5/1 27/6/1 138/6/57 137/5/56 
f 52/1/1 51/2/1 139/2/58 140/1/59 
f 53/5/1 52/1/1 140/1/59 141/5/54 
f 54/6/1 53/5/1 141/5/54 142/6/60 
f 51/2/1 19/2/1 136/2/55 139/2/58 
f 27/6/1 66/6/33 143/6/61 138/6/57 
f 90/1/1 88/2/1 144/2/58 145/1/59 
f 92/5/1 90/1/1 145/1/59 146/5/54 
f 94/6/1 92/5/1 146/5/54 147/6/60 
f 117/2/1 119/1/1 148/1/54 149/2/62 
f 119/1/1 120/5/1 150/5/59 148/1/54 
f 120/5/1 121/6/1 151/6/58 150/5/59 
f 88/2/1 117/2/1 149/2/62 144/2/58 
f 132/6/51 94/6/1 147/6/60 152/6/63 
s 1
f 153/5/64 154/6/64 155/7/64 156/10/64 
s off
f 157/3/1 158/2/65 159/2/64 160/3/64 
f 158/2/65 161/1/66 162/1/64 159/2/64 
f 161/1/66 163/5/67 153/5/64 162/1/64 
f 163/5/67 164/6/68 154/6/64 153/5/64 
f 164/6/68 165/7/69 155/7/64 154/6/64 
f 165/7/69 166/8/70 167/8/64 155/7/64 
f 166/8/70 168/9/71 169/9/64 167/8/64 
f 168/9/71 157/3/1 160/3/64 169/9/64 
f 170/3/64 171/2/64 172/2/72 173/3/64 
f 171/2/64 174/1/64 175/1/73 172/2/72 
f 174/1/64 176/5/64 177/5/74 175/1/73 
f 176/5/64 178/6/64 179/6/75 177/5/74 
f 178/6/64 180/7/64 181/7/76 179/6/75 
f 180/7/64 182/8/64 183/8/77 181/7/76 
f 182/8/64 184/9/64 185/9/78 183/8/77 
f 184/9/64 170/3/64 173/3/64 185/9/78 
f 186/3/64 187/3/79 188/2/80 189/2/64 
f 189/2/64 188/2/80 190/1/81 191/1/64 
f 191/1/64 190/1/81 192/5/82 193/5/64 
f 193/5/64 192/5/82 194/6/83 195/6/64 
f 195/6/64 194/6/83 196/7/84 197/7/64 
f 197/7/64 196/7/84 198/8/85 199/8/64 
f 199/8/64 198/8/85 200/9/86 201/9/64 
f 201/9/64 200/9/86 187/3/79 186/3/64 
f 202/3/64 186/3/64 189/2/64 203/2/64 
f 203/2/64 189/2/64 191/1/64 204/1/64 
f 204/1/64 191/1/64 193/5/64 205/5/64 
f 205/5/64 193/5/64 195/6/64 206/6/64 
f 206/6/64 195/6/64 197/7/64 207/7/64 
f 207/7/64 197/7/64 199/8/64 208/8/64 
f 208/8/64 199/8/64 201/9/64 209/9/64 
f 209/9/64 201/9/64 186/3/64 202/3/64 
f 171/2/64 170/3/64 202/3/64 203/2/64 
f 210/9/87 211/9/88 209/9/64 202/3/64 
f 212/8/89 182/8/64 180/7/64 213/7/90 
f 214/9/91 184/9/64 182/8/64 212/8/89 
f 215/7/92 207/7/64 208/8/64 216/8/93 
f 216/8/93 208/8/64 209/9/64 211/9/88 
f 217/7/94 180/7/64 178/6/64 218/6/94 
f 219/7/95 213/7/90 180/7/64 217/7/94 
s 1
f 220/4/64 221/1/64 222/2/64 223/3/64 
s off
f 224/3/96 223/3/64 222/2/64 225/2/97 
f 225/2/97 222/2/64 221/1/64 226/1/98 
f 226/1/98 221/1/64 227/5/64 228/5/99 
f 228/5/99 227/5/64 229/6/64 230/6/100 
f 230/6/100 229/6/64 231/7/64 232/7/101 
f 232/7/101 231/7/64 233/8/64 234/8/102 
f 234/8/102 233/8/64 235/9/64 236/9/103 
f 236/9/103 235/9/64 223/3/64 224/3/96 
f 237/3/64 238/3/104 239/2/105 240/2/64 
f 240/2/64 239/2/105 241/1/106 242/1/107 
f 242/1/107 241/1/106 243/5/82 244/5/64 
f 244/5/64 243/5/82 245/6/108 246/6/64 
f 246/6/64 245/6/108 247/7/84 248/7/64 
f 248/7/64 247/7/84 249/8/109 250/8/64 
f 250/8/64 249/8/109 251/9/86 252/9/64 
f 252/9/64 251/9/86 238/3/104 237/3/64 
f 253/3/107 254/2/64 255/2/72 256/3/110 
f 254/2/64 257/1/64 258/1/111 255/2/72 
f 257/1/64 259/5/64 260/5/74 258/1/111 
f 259/5/64 261/6/64 262/6/112 260/5/74 
f 261/6/64 263/7/64 264/7/76 262/6/112 
f 263/7/64 265/8/113 266/8/114 264/7/76 
f 265/8/113 267/9/64 268/9/78 266/8/114 
f 267/9/64 253/3/107 256/3/110 268/9/78 
f 269/3/64 270/2/64 254/2/64 253/3/107 
f 270/2/64 271/1/64 257/1/64 254/2/64 
f 271/1/64 272/5/107 259/5/64 257/1/64 
f 272/5/107 273/6/64 261/6/64 259/5/64 
f 273/6/64 274/7/64 263/7/64 261/6/64 
f 274/7/64 275/8/115 265/8/113 263/7/64 
f 275/8/115 276/9/64 267/9/64 265/8/113 
f 276/9/64 269/3/64 253/3/107 267/9/64 
f 240/2/64 270/2/64 269/3/64 237/3/64 
f 237/3/64 277/9/88 278/9/88 252/9/64 
f 279/8/93 280/7/92 248/7/64 250/8/64 
f 278/9/88 279/8/93 250/8/64 252/9/64 
f 281/7/90 282/8/89 275/8/115 274/7/64 
f 282/8/89 283/9/88 276/9/64 275/8/115 
f 284/7/116 285/6/117 246/6/64 248/7/64 
f 286/7/118 284/7/116 248/7/64 280/7/92 
f 287/1/119 174/1/64 171/2/64 288/2/120 
f 289/5/121 176/5/64 174/1/64 287/1/119 
f 290/6/122 178/6/64 176/5/64 289/5/121 
f 291/2/123 203/2/64 204/1/64 292/1/124 
f 292/1/124 204/1/64 205/5/64 293/5/119 
f 293/5/119 205/5/64 206/6/64 294/6/125 
f 288/2/120 171/2/64 203/2/64 291/2/123 
f 295/6/126 218/6/94 178/6/64 290/6/122 
f 296/2/123 240/2/64 242/1/107 297/1/124 
f 297/1/124 242/1/107 244/5/64 298/5/119 
f 298/5/119 244/5/64 246/6/64 299/6/125 
f 300/1/119 271/1/64 270/2/64 301/2/127 
f 302/5/124 272/5/107 271/1/64 300/1/119 
f 303/6/123 273/6/64 272/5/107 302/5/124 
f 301/2/127 270/2/64 240/2/64 296/2/123 
f 299/6/125 246/6/64 285/6/117 304/6/128 
s 1
f 35/3/19 34/2/18 188/2/80 187/3/79 
f 34/2/18 38/1/20 190/1/81 188/2/80 
s 2
f 38/1/20 40/5/21 192/5/82 190/1/81 
f 40/5/21 42/6/22 194/6/83 192/5/82 
f 42/6/22 44/7/23 196/7/84 194/6/83 
s 4
f 44/7/23 46/8/24 198/8/85 196/7/84 
s 1
f 46/8/24 48/9/25 200/9/86 198/8/85 
f 48/9/25 35/3/19 187/3/79 200/9/86 
f 61/7/29 60/8/28 212/8/89 213/7/90 
f 60/8/28 59/9/27 214/9/91 212/8/89 
f 63/8/31 62/7/30 215/7/92 216/8/93 
f 64/9/32 63/8/31 216/8/93 211/9/88 
f 58/9/26 305/9/27 210/9/87 306/9/91 
s 2
f 66/6/33 65/7/33 217/7/94 218/6/94 
s 1
f 67/7/34 61/7/29 213/7/90 219/7/95 
s 2
f 65/7/33 67/7/34 219/7/95 217/7/94 
s 1
f 101/2/10 104/3/11 256/3/110 255/2/72 
f 105/1/48 101/2/10 255/2/72 258/1/111 
s 2
f 107/5/13 105/1/48 258/1/111 260/5/74 
f 109/6/49 107/5/13 260/5/74 262/6/112 
s 1
f 111/7/15 109/6/49 262/6/112 264/7/76 
s 2
f 113/8/50 111/7/15 264/7/76 266/8/114 
s 1
f 115/9/17 113/8/50 266/8/114 268/9/78 
f 104/3/11 115/9/17 268/9/78 256/3/110 
f 128/8/31 127/7/30 280/7/92 279/8/93 
f 129/9/27 128/8/31 279/8/93 278/9/88 
f 131/7/29 130/8/28 282/8/89 281/7/90 
f 130/8/28 126/9/26 283/9/88 282/8/89 
f 126/9/26 125/9/27 307/9/88 283/9/88 
s 2
f 133/7/52 132/6/51 285/6/117 284/7/116 
f 134/7/53 133/7/52 284/7/116 286/7/118 
s 1
f 127/7/30 134/7/53 286/7/118 280/7/92 
f 136/2/55 135/1/54 287/1/119 288/2/120 
f 135/1/54 137/5/56 289/5/121 287/1/119 
f 137/5/56 138/6/57 290/6/122 289/5/121 
f 140/1/59 139/2/58 291/2/123 292/1/124 
f 141/5/54 140/1/59 292/1/124 293/5/119 
f 142/6/60 141/5/54 293/5/119 294/6/125 
f 139/2/58 136/2/55 288/2/120 291/2/123 
s 2
f 143/6/61 66/6/33 218/6/94 295/6/126 
s 1
f 138/6/57 143/6/61 295/6/126 290/6/122 
f 145/1/59 144/2/58 296/2/123 297/1/124 
f 146/5/54 145/1/59 297/1/124 298/5/119 
f 147/6/60 146/5/54 298/5/119 299/6/125 
f 149/2/62 148/1/54 300/1/119 301/2/127 
f 148/1/54 150/5/59 302/5/124 300/1/119 
f 150/5/59 151/6/58 303/6/123 302/5/124 
f 144/2/58 149/2/62 301/2/127 296/2/123 
f 152/6/63 147/6/60 299/6/125 304/6/128 
s 2
f 132/6/51 152/6/63 304/6/128 285/6/117 
s off
f 18/2/10 21/3/11 6/3/3 5/2/2 
f 21/3/11 32/9/17 17/9/9 6/3/3 
f 32/9/17 30/8/16 15/8/8 17/9/9 
f 30/8/16 28/7/15 13/7/7 15/8/8 
f 28/7/15 26/6/14 11/6/6 13/7/7 
f 26/6/14 24/5/13 9/5/5 11/6/6 
f 24/5/13 22/1/12 7/1/4 9/5/5 
f 22/1/12 18/2/10 5/2/2 7/1/4 
f 86/3/44 85/2/43 75/2/36 74/3/35 
f 85/2/43 89/1/45 77/1/37 75/2/36 
f 89/1/45 91/5/21 78/5/38 77/1/37 
f 91/5/21 93/6/46 79/6/39 78/5/38 
f 93/6/46 95/7/23 80/7/40 79/6/39 
f 95/7/23 97/8/47 82/8/41 80/7/40 
f 97/8/47 99/9/25 84/9/42 82/8/41 
f 99/9/25 86/3/44 74/3/35 84/9/42 
f 239/2/105 238/3/104 224/3/96 225/2/97 
f 238/3/104 251/9/86 236/9/103 224/3/96 
f 251/9/86 249/8/109 234/8/102 236/9/103 
f 249/8/109 247/7/84 232/7/101 234/8/102 
f 247/7/84 245/6/108 230/6/100 232/7/101 
f 245/6/108 243/5/82 228/5/99 230/6/100 
f 243/5/82 241/1/106 226/1/98 228/5/99 
f 241/1/106 239/2/105 225/2/97 226/1/98 
f 172/2/72 175/1/73 161/1/66 158/2/65 
f 175/1/73 177/5/74 163/5/67 161/1/66 
f 177/5/74 179/6/75 164/6/68 163/5/67 
f 179/6/75 181/7/76 165/7/69 164/6/68 
f 181/7/76 183/8/77 166/8/70 165/7/69 
f 183/8/77 185/9/78 168/9/71 166/8/70 
f 185/9/78 173/3/64 172/2/72 158/2/65 157/3/1 168/9/71 
s 1
f 10/6/1 8/5/1 1/1/1 4/4/1 
f 3/3/1 16/9/1 14/8/1 4/4/1 
f 4/4/1 14/8/1 12/7/1 10/6/1 
f 72/2/1 76/1/1 71/5/1 70/10/1 
f 69/7/1 81/8/1 83/9/1 70/10/1 
f 70/10/1 83/9/1 73/3/1 72/2/1 
f 229/6/64 227/5/64 221/1/64 220/4/64 
f 223/3/64 235/9/64 233/8/64 220/4/64 
f 220/4/64 233/8/64 231/7/64 229/6/64 
f 159/2/64 162/1/64 153/5/64 156/10/64 
f 155/7/64 167/8/64 169/9/64 156/10/64 
f 156/10/64 169/9/64 160/3/64 159/2/64 
s off
f 237/3/64 269/3/64 307/9/88 277/9/88 
f 269/3/64 276/9/64 283/9/88 307/9/88 
f 202/3/64 170/3/64 306/9/91 210/9/87 
f 170/3/64 184/9/64 214/9/91 306/9/91 
f 20/3/1 50/3/1 305/9/27 58/9/26 
f 50/3/1 57/9/1 64/9/32 305/9/27 
f 118/3/1 87/3/1 308/9/27 125/9/27 
f 87/3/1 100/9/1 129/9/27 308/9/27 
s 1
f 305/9/27 64/9/32 211/9/88 210/9/87 
f 306/9/91 214/9/91 59/9/27 58/9/26 
f 308/9/27 129/9/27 278/9/88 277/9/88 
f 277/9/88 307/9/88 125/9/27 308/9/27 
s 2
f 273/6/64 303/6/123 294/6/125 206/6/64 
f 274/7/64 273/6/64 206/6/64 207/7/64 
f 281/7/90 274/7/64 207/7/64 215/7/92 
f 122/7/1 131/7/29 62/7/30 55/7/1 
f 121/6/1 122/7/1 55/7/1 54/6/1 
f 151/6/58 121/6/1 54/6/1 142/6/60 
s off
f 62/7/30 131/7/29 281/7/90 215/7/92 
f 294/6/125 303/6/123 151/6/58 142/6/60 
# 309 polygons

